<mxfile host="app.diagrams.net" modified="2024-04-16T14:07:43.460Z" agent="Mozilla/5.0 (Windows NT 10.0; Win64; x64) AppleWebKit/537.36 (KHTML, like Gecko) Chrome/123.0.0.0 Safari/537.36" etag="wPwiy88TnGCCwBlQQIqz" version="24.2.5" type="github">
  <diagram name="Страница — 1" id="cwbwfXom4XiRTm7THdzy">
    <mxGraphModel dx="1434" dy="772" grid="1" gridSize="10" guides="1" tooltips="1" connect="1" arrows="1" fold="1" page="1" pageScale="1" pageWidth="827" pageHeight="1169" math="0" shadow="0">
      <root>
        <mxCell id="0" />
        <mxCell id="1" parent="0" />
        <mxCell id="XbzdiaEdwU7jGiKnz97N-3" value="" style="edgeStyle=orthogonalEdgeStyle;rounded=0;orthogonalLoop=1;jettySize=auto;html=1;" edge="1" parent="1" source="XbzdiaEdwU7jGiKnz97N-1" target="XbzdiaEdwU7jGiKnz97N-2">
          <mxGeometry relative="1" as="geometry" />
        </mxCell>
        <mxCell id="XbzdiaEdwU7jGiKnz97N-1" value="XEL-230-40&lt;div&gt;SERVO&lt;/div&gt;&lt;div&gt;CONTROL&lt;/div&gt;" style="whiteSpace=wrap;html=1;aspect=fixed;" vertex="1" parent="1">
          <mxGeometry x="370" y="360" width="80" height="80" as="geometry" />
        </mxCell>
        <mxCell id="XbzdiaEdwU7jGiKnz97N-5" value="" style="edgeStyle=orthogonalEdgeStyle;rounded=0;orthogonalLoop=1;jettySize=auto;html=1;" edge="1" parent="1" source="XbzdiaEdwU7jGiKnz97N-2" target="XbzdiaEdwU7jGiKnz97N-4">
          <mxGeometry relative="1" as="geometry" />
        </mxCell>
        <mxCell id="XbzdiaEdwU7jGiKnz97N-2" value="RPI 4" style="whiteSpace=wrap;html=1;aspect=fixed;" vertex="1" parent="1">
          <mxGeometry x="370" y="200" width="80" height="80" as="geometry" />
        </mxCell>
        <mxCell id="XbzdiaEdwU7jGiKnz97N-4" value="Touch screen display" style="shape=process;whiteSpace=wrap;html=1;backgroundOutline=1;" vertex="1" parent="1">
          <mxGeometry x="350" y="50" width="120" height="60" as="geometry" />
        </mxCell>
        <mxCell id="XbzdiaEdwU7jGiKnz97N-8" style="edgeStyle=orthogonalEdgeStyle;rounded=0;orthogonalLoop=1;jettySize=auto;html=1;exitX=0;exitY=0.5;exitDx=0;exitDy=0;entryX=1;entryY=0.5;entryDx=0;entryDy=0;" edge="1" parent="1" source="XbzdiaEdwU7jGiKnz97N-7" target="XbzdiaEdwU7jGiKnz97N-1">
          <mxGeometry relative="1" as="geometry" />
        </mxCell>
        <mxCell id="XbzdiaEdwU7jGiKnz97N-7" value="" style="shape=image;verticalLabelPosition=bottom;labelBackgroundColor=default;verticalAlign=top;aspect=fixed;imageAspect=0;image=data:image/png,iVBORw0KGgoAAAANSUhEUgAAA8UAAAHACAYAAACLYMr2AAAgAElEQVR4Aey9X8gt132ff2qrqVubyHKc5kKU00iOBG3gqIjgC5n4RqpxQ3pudHBcAgcsfEwx4Vw04ZiSYBwT0E0raClUaeAQCChRQw+0hFJOoBATZIxAOOSuCDnQi1xJgVz2Yv9+n338ec/3Xe+amTUza2bN7P0smHdmz6y/z5o9ez3vmj372oEAAQhAAAIQWIHARx99dLhx48bh/v37K5RGERCAAAQgAAEIQKCMwLWyaMSCAAQgAAEIzCPwv//3/z5cu3bt8MUvfnFeRqSGAAQgAAEIQAACFQkgxRVhkhUEIACBGgSeeuqpw71792pkVSWPd9999yizb7/99qz8kOJZ+EgMAQhAAAIQgMBCBJDihcCSLQQgcDh8+OGHR5nKCd7LL798eOaZZw4Srj0Ft+nWrVuLVRspXgwtGUMAAhCAAAQgAIErBJDiK0jYAQEI1CJggUylWEIp8dubENfiMpRPSynOlc1M8VCPcRwCEIAABCAAgT0TQIr33HvUHQIbJ5CT4jt37iDEA/2WE9OBJNUO58pGiqvhJSMIQAACEIAABDZIACneYKdQJQicCoFUijVjrAct5b6bqn26pVrHteRuT3799dePt1w7jl47WNy0bygfp9Fa8SWCMei2buXh8P777x/r9PDhw+OuVBz9Wnm5bm6j9ik/79froeD8YjyzUz7Kz/krzpi2658SrsuLL7548KJ8VK6Pea36jsk/1jnd5jvFKRFeQwACEIAABCCwBQJI8RZ6gTpA4EQJRCm2MEaZc7Mlm5KwN99807sOkrcoxpZLCZqC8pa4WjItbtrnOFrnBPOikMPh4LItvH6tdCpDQfXSa4c0T73W4ro43lCdHS9dp/mrTVpcH7Urfh87tt183fZYJ+UhCZbkK2gdpVj70rK1rzT/Y6Y9f5DiHjgcggAEIAABCECgGQGkuBl6CobA6ROwFHumVGuLXWy9ZE0SHIPTWlYla1GaFVcCqP0KFjdLofPy7dp+nVsrD8uj1qqP6urylIf2OaTimL6O8ZyH98U6e1+6jvlZ0i2yjquZY9epq+0SXv9jwfmkfHRc8Rxi2d5Xkr/j9q2R4j46HIMABCAAAQhAoBUBpLgVecqFwBkQsNhKtCSbWkcBMwLt9+266VrpLHTpMb/W8S5xU3rFy8m4y5dcWjAtw1GEtU/5OKTimL5WvJI6O790HfNz/d3WuFY8ha62x1lg55NymCvFuf5M2+PXSLFJsIYABCAAAQhAYEsEkOIt9QZ1gcCJEbAU++nTmqWU1FlA3VzJXZRO7/fagql1V+gSwy4ZjPkojuqgPCyaKsv7VOdYtva7Tconfa19JXWOdYjbMT/XLR5Pt7vaHqXY30lGilN6vIYABCAAAQhA4NwJIMXnfgbQfggsSCCVYhVlSY23S0d5y1VH+URRzMXpEkPNhGqmty9YYCXrvt1Y8ZVO+1R2DGld0teKW1LnmGfcjvn5Hwnpbc8xflfbI1fdxp3KvfJgpjiSZBsCEIAABCAAgXMkgBSfY6/TZgisRCAnxSras5YSZAVLaRRSfYdW4uw4lmm/VjqJoqRVUmgxjDO4FsH0e73HQpM/EmBJY4yr8rtmtmM5UWJjtkN1jnHjdpqf2qj6RTFW3tqv4LbH49ofpVh9Ycl3WcpDZSmeg/KMr7W/JH+n71tz+3QfHY5BAAIQgAAEINCKAFLcijzlQuAMCHRJsZouAZZwWnItuNrnRVIqIXNQXAmbj1seVY7FTVLn45LAKLnOJ7dWWcovBsu66+hjLrfrtfdr3VfnGC9up/nrmCRc+902cXC93PY+KVYeihf5qQ9SCfYTqV2OyijNP7Yht40U56iwDwIQgAAEIACB1gSQ4tY9cELle8CuATQBAmsT6BK3teuxt/IkxfqHwBoBKV6DMmVAAAIQgAAEIDCWAFI8llhBfN8aGm8FzSXzjE06u5OLu4d9SPEeeul064gUD/et5Nezy4rt28s1I75GQIrXoEwZEIAABCAAAQiMJYAUjyVWEH/rUmx5kMTWDLWkOL2ttmYdyet0Cfi8PpV/Mi3RUxJi3xattf4xV3p7eY36IMU1KJIHBCAAAQhAAAK1CSDFtYmGhwhtdabY8oAUL9D5ZAkBCHQSQIo70XAAAhCAAAQgAIGGBJDiBeAzUzzvO8XMFC9wUpIlBDZAACneQCdQBQhAAAIQgAAErhBAiq8gmb+jhhT752jirY56II5medOgffGJu04Tn07rNOntk46rdZw5jrdCK41/rkbxVJbql4aYJh7rKlPfb0zzcR6xXt5WPjF0Pa1YTyImQKA2Af2zRu8pwnQCSPF0dqSEAAQgAAEIQGA5AkjxAmznSrFkzyKYW6cPxemSTqeNT5bti5uT4i5J1f4uoU3FvSsP1S/Npy9ulGIzdhvjWgKPGC9wYp95lkjx/BMAKZ7PkBwgAAEIQAACEKhPACmuz/T4e6JR0oa244OBJJoWw/idZEmeZ4MlfSUhCnAUVW2rTiqnK7gOWkcZVVo/NTvWT/k4TSyrK3+10+1J89Fr1S+WG/PxE3PTOH11i+nZhsAUAjovl5wp9vv1lP+hgxRPOfNIAwEIQAACEIDA0gSQ4gUI981i5gQ5SrFmdRUnzu7GKvo25nS2OMaJ2xbP+ITZMVKcE1yVrTqmUj1GilVH55NK/pAUm0Fsk9tc0jbHZQ2BMQSQ4jG08nGR4jwX9kIAAhCAAAQg0JYAUrwAf0uxBtF9wTOuUYotfF3Sa2nOzaKqXC3OIwp4jF8ijkOCmzue2+f2q42qm4U31k3pYnCcWGcf1wxzTsh9XGu3Pyf0MR7b+yWgvvX55vMhPV/0Op5n+gdR3zmhGVqfe06n15651bbes8rXZetci+9fEdU/a3wOKh+li181cD5pPJfpdfq+iL2lOvn64fjpP9LS/FWn3D+SYr5LbyPFSxMmfwhAAAIQgAAEphBAiqdQG0gzR4o92PZAt2utMhw0KO+K5/1RGGpIsQfkUQhc91Q8PFvtuqTrdPAvaVCcWGe31bPLaR6517FuTs/6NAhIAOP5oW2dA+5zvT90XvlclERqX0yTktA5rcUSrLQ6F52Hz8v43tO+eP5KOuO5q7x0/ktIHZxPKrFug8t3/NxacWM91G7Vw/v0OtZDeaRpcvkuvQ8pXpow+UMAAhCAAAQgMIUAUjyF2kAaDUw1INXgty/0iaXS9y0e/GoArcGw4mrwrf1xUO0BeJQBDfIVPw7m03o6TwtBetwzYXFGO5fGLFSetuNMVVc9cnV2+UixSbBOCej88/tC51AU0TRu7rXS971ndUzv2Rgsn36fqEy9D2Pw3Q1+D+byUXwd1/skvn9jPkPbKtf1c16u11DatY4jxWuRphwIQAACEIAABMYQQIrH0CqMaxHsG2Arq5wUWzZLB7Me/HownFZRddBA2wNyHe+S0Zg2J7i54/G20Fwa7/MMXsyjqx65OjudBUP5Es6XgM4dvc98fukc9z9eRMUzttqnGVnFHXpPKZ7iK0/F1xIFNSezlmKtFTfWIfaO8vTMcC4fxfV7OZYZ84jbiqP6+RqicrX4OqD3idn4n2XxH1IxrzW3keI1aVMWBCAAAQhAAAKlBJDiUlIj4mmwqgGqBr99wQPaKIwemCuPkuCBdFdZ2q+61JRil5nOxHkQHuUjt8/tmiLFSut/HERuzpP16RPw3QJ6j8RzQOdafN9YHLXP5+GQGFq2/T5UOv/jJyezKl/vL63XkmKVo/eA6hPf17n66bja72uNxbzVWYIUtyJPuRCAAAQgAAEI9BFAivvoTDymQehUKbYoOr0H5K6KBrka/FoGPCjX4N37FFfbmiFSPlri4FnHLQlRIlxGPJ4OopXPUJ5Rij0YT28pjaKiusTgMjTwT9uveD6ueqT1twipPG0TTo+A319p/+o8Ss+H2HqLZNzXt61zL753ctLp95/feyojPdf9nvZ7MJeP6uHzOm1XWse0TB/vytfH9V5O32s+ttYaKV6LNOVAAAIQgAAEIDCGAFI8hlZhXA/aNUjtCxZGD6gd14Ney2duHdNE+Y1xNQB2GR6QuwzVLcbVdhwwazs9Hl/n2uY0UYo9qxfTett1i+WqfpYIx/M6tsGMfSy3HpILs2C9LwKWx/ge8MyupVjnZzxfdE7pPPPxtMU6V/Q+ijPJaTnKU+dsDH6vui6+bdtlO1/JskMuHx3zeyXWwWni2u+P2BaVp/a5fjqmxe8BrXXMx2N+a24jxWvSpiwIQAACEIAABEoJIMWlpEbE02BUkpYTx5iNBqiK5wF1PKZZKucThS8d7DuNpcBxPSBWfO3zIN3xtU7TxBkuC67iuJ7KR4P7XF7Kz2miFGu/2hfzsHx4cK90aUjTqGxJQwyK4/a53Vqr7TmmMS3b+yYQ3xs+J3Ueab+CztF4zum86DpvTUJpfQ4rvvKNgqpzTXnGoPNMceP5pjRKq/1alC7e8ZDLx3mqjk6Xe184nsqIdVXdY76qT/rPMh23JDuftddI8drEKQ8CEIAABCAAgRICSHEJpTOM4wF3KrhniIImQwAClQggxZVAkg0EIAABCEAAAlUJIMVVcZ5OZkjx6fQlLYHAVgggxVvpCeoBAQhAAAIQgEAkgBRHGmxfEECKL1CwAQEIVCKAFFcCSTYQgAAEIAABCFQlgBRXxXk6mSHFp9OXtAQCWyGAFG+lJ6gHBCAAAQhAAAKRAFIcabANAQhAAAKLEUCKF0NLxhCAAAQgAAEIzCCAFM+AR1IIQAACECgngBSXsyImBCAAAQhAAALrEUCK12NNSRCAwEYJxJ8z6qpiSZyutOx/RAAp5kyAAAQgAAEIQGCLBJDiLfYKdYIABBYloN8b1vfmHUqEtySO8xu7jr9PHH/zWPn4WOvfGB7bplx8pDhHhX0QgAAEIAABCLQmgBS37gHKhwAEmhMoEd6SOFMbYvGVqEvYY/CxMVI8pq4q8969e7HIxbaR4sXQkjEEIAABCEAAAjMIIMUz4JEUAhA4DQIlElkSZyoNi6/XcbbY+5DiqXRJBwEIQAACEIAABPoJIMX9fDgKAQhUJmC5lOz5p7+eeeaZQxRBFWkZvHbt2kFLOpv55ptvHpTOx7WtfQ5p+pdffvnw7rvvHg+7Do7r1zFNWifHcRqtFT/WQa+nBJer+mmmOM4W+1iU4rTtqtv7779/LFrbZuK19uWC+Tue1m6D6iJmPqbttI9yefbtY6a4jw7HIAABCEAAAhBoRQApbkWeciFwpgQsbZYvYdA+CZrF786dO8fXllitJZ+WO8lZFDjlofwszlorP6dXvtrnMpVPFM+SOqVplJfqFMuQOLqMMd2rNGqP8tKibQu+j5mN9se2a7/KVV0c0rp6f24tTubm4xJs7Vc+DuoT19H7xq6R4rHEiA8BCEAAAhCAwBoEkOI1KFMGBCBwQSAnbJIwi17cvkh0OBwl0VJmUbSQxnjaVhlREnPHUymOrxU/rUdab0mjxdX5S9a1f2xI2xPr72OWYrVLEhzDUF1j3HQ7J8X+p0QaV2WrblMDUjyVHOkgAAEIQAACEFiSQK8UawA6tPRV7vbt24PpFacvlOTRl17Hhtqg432hpA604/G50seS/nhMZyvn1eMarbOVyqVLtZx5Fji9VTfOoEoCFV/vXQmiZjqjoHo2VccleDoeBTqtQ/o6rZNexzgPHz7sva7o+Jhg8XUd3Vbt9zFJsRa1KZ3ZVVniobYqxLoO1cPcYzz9gyD9J4Hz7ftnQ8wjt40U56iwDwIQgAAEIACB1gR6bVCDr6GlrwFbGfQPtUHH+wLteEynhMXj2Pkt+uMRlxKWitMXSvLoS9/iWJewWc5KpNj1ljBKECVwOq8shTougdQxLRZoi3Nah/S183ed9DrGsRSPlV/nm64tvpZilycB9TGkOKXGawhAAAIQgAAEIFCHwLWhQXedYsgFAhCAwCMCUS7NxDOjktb0VmDHsRxGcfQxrbtu+XWceOtvWof0tdLEOul1jCNBjcLsMqauc21z+RZ+lamgdqS3Tzuu8lGIdT3u6PmTa0cXy8iwJ8vOQ8wUd6LhAAQgAAEIQAACDQlcG5olbVg3ioYABBYi0PKfYRI2yZXkV0GyJ8mLt+tayizAWkch8wywRVFrpXceKsOCqDKUPspfKo0ldUrTWGRjOZrlVltc71ycXJc6ntM5jsr0nRVuq28Nd7nmJz4OOqb2mrH359Ype8Xx7ekq30F9orqkdfTxkjVSXEKJOBCAAAQgAAEIrE0AKV6bOOVBYAMEWv4zzALqGVDVRfssfcZjUbQUSoQdLJ8+luahtDF/HbdEKg+VZ4GOryWIzjOtU5pG6dJyLN5ui9sQy3Yb4trxUuFUPspTdXKeSicxlgTHuqYCnLYllhe3lS6ycl1Vl5iHttPvecd8SraR4hJKxIEABCAAAQhAYG0CSPHaxCkPAhsgIJlqFXJy2aoulLsuAaR4Xd6UBgEIQAACEIBAGQGkuIwTsSBwUgSQ4pPqzt00BineTVdRUQhAAAIQgMBZEUCKz6q7aSwEHhFAijkTWhBAiltQp0wIQAACEIAABIYIIMVDhDgOgRMk0FKKTxAnTSokgBQXgiIaBCAAAQhAAAKrEkCKV8VNYRDYBgGkeBv9cG61QIrPrcdpLwQgAAEIQGAfBJDiffQTtYRAVQJIcVWcRZnxgLHDASkuOlWIBAEIQAACEIDAygSutfy90pXbSnEQgMCPCSDF658KY6VYP0EVfzZq/RrXLxEprs+UHCEAAQhAAAIQmE+g3e+yzK87OUAAAhMJ8M+wieBmJBsjxfo9YP0+MVI8AzhJIQABCEAAAhCAQCEBpLgQFNEgAAEIzCFQIsUffvjhQbP4XpDiOcRJCwEIQAACEIAABMoIIMVlnIgFAQhshIBuK7Y0PvPMMwfNqjpIPDXD+v7773vXcVv7dMwh5qG87ty5c5CQKiit4rqMl19++VJ+iqMytd9xYt4uQ3n6uOopwR0juWPiv/vuu8eyVGasl17rWNynbbfVdV1rze3Ta5GmHAhAAAIQgAAExhBAisfQIi4EINCUgIQuSp2ET8KptUMqk3qtNA4+bnG2BCsPyaLyk0w6vPnmm8d9fv3w4cOjgGq/g+JHMVZ5KsdlKF+X6zRD6zHxVXcJuMo1C4m79ukfAq+//vqxuFz7hupR8zhSXJMmeUEAAhCAAAQgUIsAUlyLJPlAAAKLErCMWjRdmGZ9o/TquERQoqpFcumZUYui8soFyaOkOA3Kw2KpsqI0K67yl4AqX9czzmArjqRZ+ZSGKVKclikO4hPD2HrEtHO3keK5BEkPAQhAAAIQgMASBJDiJaiSJwQgUJ2ApNS3I6dryV8MmsX1LGmUaN82bUmOabQt4U3z9muLt8ryvnStOrqeaRljZRQpTnuH1xCAAAQgAAEIQGAZAkjxMlzJFQIQqExAspnKb1cRlmJJa5wVLpFiy29X3qqD6tIVkOIuMvxOcTcZjkAAAhCAAAQg0JIAv1Pckj5lQwACxQR863N6i3CagW+flpxKcHU7tGdtLctRlGN6SbOk1/HjMW8PzeB2lcFMMVLsc4g1BCAAAQhAAALbInBNMykECEDgvAjs9XeKLblRjC2/6kHJrKTVs716LSn2a8Wx1Pq2aq0lrPFBW4rv40ojWfb3iP2dYaVxUFwd9wxyWqb2S7ZVdmlwPUvi+0FbkYvSqUzVPYaxch7Tzt3mO8VzCZIeAhCAAAQgAIElCCDFS1AlTwhsnMCe/xnm2Vx/n1fyaBm1NMeZ3lRidUwC6/Ra67XTWHDjceWrGWAHyaf2xTjKw09+1lr18nEdK5FR1cFp0rXr5zrENVIcabANAQhAAAIQgAAExhFAisfxIjYEToKAhIsAgbUJMFO8NnHKgwAEIAABCECghABSXEKJOBA4MQJI8Yl16E6agxTvpKOoJgQgAAEIQODMCCDFZ9bhNBcCIoAUcx60IIAUt6BOmRCAAAQgAAEIDBFAiocIcRwCJ0gAKT7BTt1Bk5DiHXQSVYQABCAAAQicIQGk+Aw7nSZDACnmHGhBACluQZ0yIQABCEAAAhAYIoAUDxHiOAROkABSfIKduoMmLSnFP/zhDw+vvfba4YUXXjh8+tOfPi56XRI++OCDw/379w937949fPGLXzwu77zzTklS4kAAAhCAAAQgcAIEeATtCXQiTYDAWALnJMX6KSW11z/bNJbV2vH1002qr5b0N4ZjXXI/PxWPb3F7CSn+3ve+d3j22WcvmJmd1hLcvvDgwYNjnJjG26orAQIQgAAEIACB8yCAFJ9HP9NKCFwicPv27UuvT/WFftv3qaeeuiKX6W8dS4T6BNR8un7D2L9PHOPF3zFWHUqkXHGeeeaZg8oZCmqb4kqi9xJqS7Gk1xKbW3dJsWaGh9IixXs5q6gnBCAAAQhAYD4BpHg+Q3KAAAQ2SkDCKHGMQTIpYdUMssPbb789ODOruIp3586dC2l1XipD2wqWVZXhoHQ5Ofdxr5VG+cegNrz44otx18W2JFoymEr5RYSNbdSU4q7Z4SjHOSl+7733Dk8++WSvTCsPpHhjJw/VgQAEIAABCCxIACleEC5ZQ+AUCWiWbQ9Bclo6Q6v2KG4U2dI2Pnz48ChYlmzfrq39MeQEPR7Xdk6c+6RYaSTkqUin+W7ldS0p7hJisfjmN795FFqVlZ6rfUJ88+bNwxtvvHGR9qOPPtoKNuoBAQhAAAIQgMDCBJDihQGTPQT2TkByoIcQ6Zbr69evHwVwD22ynJbciqwZVwnplBlXzzJbii3J6e3YEu4+6dZscJzl1Lbip/skyTFIiFX3PYQaUvytb33rCpPPfvazBz1oayjcuHHjStpvf/vbBwR4iBzHIQABCEAAAqdNACk+7f6ldRCYREAPINKTeHMSIUnbQ5AsprdOp/WOIprO7KZxu15LUsUkyreEWPsk21p8S3WMk8tvykzxGPnPlTlnn84Tzb6WhhpS/MQTT1wS2+eff76oeP1jJ/0Hg+pDgAAEIAABCEAAAvsY3dJPEIDAogQkNpoxG3r4kKVCcWstEqslgmS1b2Y2lmmx9GxvPNa37XS525cl3PGBXrk4ad5TpFiz2+oXzVivHXy+6Du6upNA4pneshzrNFeKf+3Xfu2S2H7iE58onuXV7dE+f7XW+UuAAAQgAAEIQAACIoAUcx5A4IwJfOc73zl88pOfvCQLURzW2P7Jn/zJRXpAUpzeatxXkAR6aGY5ppeMSmJT8dassPZFSZU8K27XA7Oc716lOD1PdJu97jTQPzzirclzpTj9LvFXv/pVoxtcp3WM9RpMTAQIQAACEIAABE6awDUNFAgQgMB5Exi6XToVilqzxMpnzO23Y3ppzEyx8lV8SWlJ6BJipe36jm/Jk6KXlmKJYM2+83fM0/Mjfa3b8FWuHmSlY7mnQpdw/4mf+IlL/8Ap+R6x8rWMx3p1ceCW6pKeIA4EIAABCEDgtAggxafVn7QGAkUEJAddQeKUPlgrykRf2q48W+wv+U5xrJdmidNZ33jc25oB1oxv1/eDLcWaMY7BUtyVTnGnSLFv4e7L1/XQLc5pX675Wu1TeZ///OddpVHrtK6liXNSnObl15JlAgQgAAEIQAAC50UAKT6v/qa1EDgSkACUBs3kaoZP38n077uWpm0Zr0sWJbWaFY5PmtZrMYkP2/J3dXXMwWIb0/qY104nwbYYq0xJ99D3inNSrDK1v0t6LeEuv2+99kyxzhf/1JG+a2w5nTpTbHHV+tOf/nRfUy8dc7kxfdc2UnwJHS8gAAEIQAACZ0EAKT6LbqaRELhMQEIwNezl9lIJqWRSUhmD5FIiGaUo/Q6w4ltuoxRbnmNab8fvCyut8vSxXD1inbydk2Idi3nF+uhYiWw7/9prP2jL7dRa+ySWudviLac1pFhllQaXG+vZtY0Ul1IlHgQgAAEIQOB0CCDFp9OXtAQCxQTGCEVxphuMKIEc8/CsDTaht0olM9e9Gcw8KLnV94X9UK2h7CyntaT4z/7sz4aKPB53uVGEJb+5RXEJEIAABCAAAQicFwGkuFF/63ZU3f7HAoOSc0BP3ZVI1FrORYo9Wzx023Kjy8CsYtU2CX86czwr04UTW06nSvFnP/vZi9l3ncOvvPJKcY2jEGubp08XoyMiBCAAAQhA4OQJIMWNuliDQg3MSoSIOOctzk888cTxPKklxH5icKNTf/Vi/d3i9Dbq1StSuUDdUi0p9veWK2e/SHZzpVg/wZTKbelssa+5Tq+HyREgAAEIQAACEICACCDFjc4DD9AaFU+xOyJgGa5VZd0yKjEgQGBtAnOlWA/rstR6rYd5lcz6SoKdRmuly33veW0mlAcBCEAAAhCAQHsCSHGjPkCKG4HfYbFI8Q47jSpnCcyVYmWqW6aj3Gr7E5/4xOGtt97Klhl3+i4Jp5cYq04ECEAAAhCAAATOmwDTRY36HyluBH6HxSLFO+w0qpwlUEOKNSv8mc985ooYS3Sffvrpw7//9/8+W7Z2unxLsdd6jz148KAzHQcgAAEIQAACEDhtAkhxo/5FihuB32GxSPEOO40qZwlYSnVOzwl9YmzR1bMYXnjhhSvFpLdRO77Xfr9xa/UVdOyAAAQgAAEInCwBpLhR1yLFjcDvsFgP0mtVne8U1yJJPmMJ1JJilSsx1sywZTa3lhjnwpAYKy/VlQABCEAAAhCAwHkQQIob9TNS3Aj8DotFinfYaVQ5S6CmFLuAe/fuHb9TPEaKlVYP7fJ1OJcWKTZh1hCAAAQgAIHTJ4AUN+pjD8YaFU+xOyKAFO+os6hqL4ElpNgFfuc73zn+RNXHP/7xi9njrplip9Fat0nfvXv3cOPGjYt0zBRHQmxDAAIQgAAETp8AUtyoj5HiRuB3WCxSvMNOo8pZAktKcSzw//2//3f4v//3/x7++q//Ou4u2v7bv/3b463ZyoMAAQhAAAIQgMB5EECKG/UzUumgXw8AACAASURBVNwI/A6LRYp32GlUOUtgLSnOFs5OCEAAAhCAAAQg0EHg2u3btzsOsXtJAkjxknRPK2+k+LT685xbgxSfc+/TdghAAAIQgMB2CVzTd6cI6xNAitdnvtcSkeK99hz1TgkgxSkRXkMAAhCAAAQgsAUCSHGjXkCKG4HfYbFI8Q47jSpnCSDFWSzshAAEIAABCECgMQGkuFEHIMWNwO+wWKR4h51GlbMEkOIsFnZCAAIQgAAEINCYAFLcqAOQ4kbgd1gsUrzDTqPKWQJIcRYLOyEAAQhAAAIQaEwAKW7UAUhxI/A7LBYp3mGnUeUsgY8++ujw8z//88ffBc5GYCcEIAABCOyOgH7v/dvf/nbx8o1vfOPwrW99a3ftpMKnTQApbtS/SHEj8DssFineYadRZQhAAAIQgMCZEHjw4MFBD+4dszz99NNnQodm7oUAUtyop5DiRuB3WCxSvMNOo8oQgAAEIAABCGQJ1B7XZAthJwRGEkCKRwKrFR0prkVyu/l88MEHxbcS9d12dP369YOWvjhjjnHubfecoWYQgAAEIACBUyeAFJ96D++zfddu3769z5rvvNaIyc47sKD6fqjQmNuJ1oxb0ASiQAACEIAABCAAgaoEkOKqOMmsEoFrlfIhm5EEkOKRwHYY3VL8zvd/sKnaW7w3VSkqczYE7t69e/CA6NTWetgMAQIQgAAE+gn42t8fi6MQWJcAUrwu74vSkOILFCe7gRSfbNfSsBkE9E+ZV1750uFrr339pBa1S19jIEAAAhCAQD8BpLifD0fbEECK23A/zpRoEEU4XQJI8en2LS2bTkDXvf/4n/7z9Aw2mhIp3mjHUC0IQGBzBJDizXUJFTocDlhZo9OAmeJG4FcsFileETZF7YYAUrybrqKiEIAABBYhgBQvgpVMZxJAimcCnJocKZ5Kbj/pkOL99NUeaqrzSbfnar3ngBTvufeoOwQgAIH5BJDi+QzJoT4BpLg+06IckeIiTLuOhBTvuvs2Vfk33njjIJn0cv/+/U3Vb0xlkOIxtIgLAQhA4PQIIMWn16en0CKkuFEvIsWNwK9YLFK8IuwTLkq/dy2RvHHjxkHbWj/55JPH7T02GyneY69RZwhAAAL1CCDF9ViSUz0C/E5xPZajckKKR+GaHfntt98+isWLL75YnNe9e/cOt27dupid8yzdnTt3Du+///5gPkjxICIiFBC4efPm8RyUECvoZ390Lu71N+aR4oJOnxhF54iuO12Lz6GJ2U9K9uDBg+Nt/7r1v2v56KOPJuVNIghAYJ8EkOJ99tup1/qaBiiE9QkgxesyHyvFr7/++hUZthR7/fDhw95GIMW9eDhYQEASo/MtFWCL8h5lQu3h6dMFnT8hiq9NXeunnvrMhFznJXn11av/WEzrp2slAQIQOB8CSPH59PWeWooUN+otpHhd8FOkWLPEkuMY3n333cPLL798FJWhWWekOJJjewoBzaxJINIZPs2+af8ev1useiPFU86G4TRi+5u/9e3DO9//wZVF+3W8axZ5qf3//J//8+PvUedqr3q6Trnj7IMABJYnoLvi9D7UuiRoPKW4zzzzzDGd0mrRmCgdM3XlhxR3kWF/SwJIcSP6SPG64MdKcV/tJMb6AHjqqaf6oh0Hn4qngV+t8MGP/urw3HPPH8v/4V/85aRs/QE2KXGSSLfyprOYSRReziCg68T169ezOeh7xXtkr/MPKc526eydfWzF3O/9Ndef+9zPIcWze5YMILAcgbFSrLFP3zVEEwdDASkeIsTxFgSQ4hbUD4cDUrwu+JpSrNum9YGw9kzxR3/zN4cvf/mXLj6MWkmxRPju3btHWfMH47q9eR6l6dZo8RXrXNAt1BLjvQW1CSleptf62FqKc7PIS+77hV/4PFK8THeTKwSqEBgrxRr7KI0mCGKIXzvTmKsvIMV9dDjWigBS3Ig8Urwu+FpSrIu+bhnSf0rTD4S0RbVvn/6VX/lXRym2GK8pxTkRthBrTahPwLdIa50LunVa7HWe7Sn0idue2pHWVe3S7e4tQx9bS/Ha9fvCF34RKV4bOuVBYASBsVLcl7UfTjp0GzVS3EeRY60IIMWNyCPF64KfI8VOqwGnFn2ArP306Tvf+NfHsr/35+8cJMeqx9JSPCTC5qE1oT4B3Rottl0P0/JMcmsRG9tytYmZ4rHUyuL3sUWKyxgSCwLnRqCmFPuZK8wUn9tZdBrtRYob9SNSvC54i+3QLc+5WjmtBpxehv4LqnxqzRT/uzf+w7Hct/7oj4/VW1KKx4iwWWhNqE9A3yXWdaIvlMTpS9/imM4XpHgZ8n1skeJlmJMrBPZOoIYUa6LAs8RaDwVmiocIcbwFAaS4BXW+U7w6dYvtFCmOlY1Pn9bvFfeFGlL8u7/36BZZrR1qS/FUEUaK3SP116WzwHv8XnGfuNUnuV6OalfrWfs+tkjxeucCJUFgTwTmSLHGVB4LaJa4ZMJAbJDiPZ0h51NXpnga9TUzxeuCryXFqvWHH354/E6xPgj6bqOeK8V/8j//1/HD5ju//TuXYNWS4vRhWf5gm7KWDLDUY+Bbp7/yla/0cvV1RH25F/46v051plj90bIf+thuWYp1vrfkRtn1rl2w3C7LrudT1JJiXX8kxkPPW9GABim+NKzjxUYIIMWNOsKD2UbFn12xNaVY8PzfUT2JuivMkWL/9JK+S5yGWlKsW2+nCDBpHt9GD4tpLE5VirdwPnSx3bIUb4EbdZj2XobbfrjduHEjHU4cX8+R4pihZol1PuhBpH0TBkqDFEdybG+FAFLcqCeQ4nXB15Zi/2j9UlLs26ZLBhyaUR4TnKfS1Lh1WvkR6hLwTPFQrqW3WQ/ls+ZxnS9d4rZmPWqXpXZplqxl6GO7ZSnWPxAJEIBAGwK1pFi1d15DXy9Ditv0NaX2E2A0289nsaNI8WJosxnXlGL/TrH+G6pbqbvCnJnitaQ41n2OIMd82J5PYMyAQTP++m7xXkKfuO2lDbl6IsU5KocDP8mU58JeCGyFgEVW67nBYy3dRt0XxnzG9eXDMQjUJIAU16Q5Ii+keASsClF9oS590JZmgvUBoXQx6PYgybAGwEP/CZ0jxbHMdLvW7dNpvvG16q7ZyieffLLoFuuYlu35BHR+6XvCJUHXkq7b4krSrx0HKV6OeB9bZoqX407OENgzgZpS/Oabbx7HDEjxns+I8607Utyo75HidcFbijVo7Fv8n1KLb1fcoQu+WrdnKY69o4dzDAlyjM/2PAIffPDB8Rx94403ijLSLbs6T/cSVFdun16mt/rYWoq7rmlL7f/c537u8LXXvp5t8Dvf/8Hx3NW1kgABCLQhUFOKNTbStcRjqa4WMVPcRYb9LQnsZyTVktICZSPFC0DtyXKsFOvpibqo+4FaHjDqdelPDpyKFEesXYIc47A9j4DPm1JRuH//0c926fb3PQS9l5DiZXqqj62leO2nA7/00heQ4mW6m1whUIXAGCnW+Efim0qvHqxlIeZBW1W6hUwaEECKG0BXkUhxI/ArFmu50WxIzbDG7dMl9Y2CXBKfOGUExkquz7Oun9soK3W9WH3itl4t6pekdm3hQVualZUAp4v2q45rh1dfvXX42Z995ijGqkNcXr31FWaK1+4QyoNAQsBSrOtD36LJBT9heiheUsSVl8wUX0HCjg0QuNbiQ3ID7W5eBaS4eRcsXgHLSm0pnltxf5jNzYf0yxAYezv03p5ArfOPmeJlzp1f/MUv9g5qn3322WUK7slV/+TxADi31kPidA4TIACBNgTGSLFqKDHWM1U8lvBa+0p+o1h5+FrQpsWUCoE8AaQ4z2XxvUjx4oibF4AUN++CXVbA398eU3k9EE3p9hCQ4j30EnWEAAQgsBwBpHg5tuQ8nQBSPJ3drJRI8Sx8u0iMFO+imzZXySmDhSlpWjUcKW5FnnIhAAEIbIPAnj6ztkGMWqxBACleg3KmDKQ4A+XEdiHFJ9ahKzVH0jh21lfxlW4PASneQy9RRwhAAALLEUCKl2NLztMJIMXT2c1KiRTPwreLxEjxLrppU5Wc+v3gsd9DbtlopLglfcqGAAQg0J4AUty+D6jBVQJI8VUmq+xBilfB3LQQpLgp/l0W7nNm7JOk9ZvGks09/CwTUrzLU5NKQwACEKhGACmuhpKMKhJAiivCHJMVUjyG1j7jWnB4+vQ++69FrX3OaD0mTE03poxacZHiWiTJBwIQgMA+CSDF++y3U681Utyoh5HiRuBXLNaighSvCH3nRfk26LE/UeNzTT9/s/WAFG+9h6gfBCAAgWUJIMXL8iX3aQSQ4mncZqdCimcj3HwGFhWkePNdtZkKWoqnVEiyqfRbD0jx1nuI+kEAAhBYlgBSvCxfcp9GYB+PK53Wtk2nQoo33T1VKocUV8F4VpncvHnzoN8cnhKQ4inU6qXZC/96LSYnCEAAAtMIIMXTuJFqWQJI8bJ8O3NHijvRnMwBpPhkunK1hswZKNy4ceOg9FsPzBRvvYeoHwQgAIFlCcz5rFu2ZuR+zgSQ4ka9jxQ3Ar9isZbi+7//BwfdQr2VRVKihbA9AnMGCnPSrkkCKV6TNmVBAAIQ2B6BvXxebY8cNVqSACPjJen25I0U98A5kUP6eRwL6BbXJ4L5pJpx/fr1g26hnhLm3Ho9pbypaZDiqeRIBwEIQOA0CCDFp9GPp9YKpLhRjyLFjcCvXKzEWDPGcxbdFqtlTh4x7e3bt5kpXvk8KC1Owjj1YVlzHtJVWr8a8ZDiGhTJAwIQgMB+CSDF++27U645Utyod5HiRuB3WGztD4+9yNMOu2p2lZHi2QibZTCn75pVmoIhAAEINCBQe1zToAkUeYIEkOJGnYoUNwK/w2Jrf3ggxds8CT744IPjDP7cmeKxv3G8Ng1mitcmTnkQgAAEtkWg9rhmW62jNnslcE23UhLWJ4AUr898ryXW/vBAird5JugWdwmj1lPC3PRTypySBimeQo00EIAABE6HQO1xzemQoSUtCVzTAIWwPgGkeH3mey2x9ocHUrzNM2Gu1M5NvxaVrUjxn/zP/3Wlybl9VyJ17FC7ps7yd2TJbghAAAInSaD2uOYkIdGo1Qkgxasjf1QgUtwI/A6Lrf3hgRRv8yR44403jjPFuo16SkCKy6l99Dd/c3juuecPv/t79y8SaVv7dGxKQIqnUCMNBCBwjgRqj2vOkSFtrk8AKa7PtChHpLgIE5EOh0PtDw+keJun1dx+8XeSJddbDluZKY4SnJPksQyR4rHEiA8BCJwrgdrjmnPlSLvrEkCK6/Iszg0pLka164iavZu78JNMuz4Fiis/V4pV0B7EbCtSLF6/8iv/6vDv3vgPx0Xbc8Ie2M9pH2khAAEI1CKAFNciST41CSDFNWmOyAspHgFrp1F9O6sGy1tcdor1ZKuta4L+ATIn7EHMVMf/+J/+85xmzkr7vT9/56DvDmuREOuWadVJ296vOGPDHtiPbRPxIQABCCxBAClegip5ziWAFM8lODE9UjwR3Ixk+qma+/fvH/TEdcmHBrHpov03b948xpv70zaW4vu//weHd77/g80sbvMMlCRdgECNQYL69u7duwvUrl6WqmNLKdaMsN8DXesps8bKS7P9BAhAAAIQ6CdQ4/OuvwSOQmA8AaR4PLMqKZDiKhiLMtF3LSXCTz755MVgWPw1gE0X7Y/xlO69994rKieNZCmWEG8pWAS2VCfqUue74/qnjs7hLQedfy2lWGz0HWIt/l6xH7rl/VP4IcVTqJEGAhA4RwL6nNr6Z9U59su5txkpbnQG6GKgQRRhOQKa6fX3NMVaM8APHjwoKlDxJMRKp0X9NfapwEhxEWoi/ZhADaHdw0BD76fWUizk8eFalmPtmxrULmaKp9IjHQQgcE4E9vBZdU79QVsfEbimgT9hfQJI8bLMNbt7/fr1yULr2kmEdTuqBryaQZbolgakuJQU8USghlTtYaCxFSn+zm//zuHLX/6li5NP29o3NdTov6llkw4CEIDAngjs4bNqTzypax0CTFXW4Tg6F6R4NLLiBBJiCawWfYe4RnCeGviW5okU1yB/PnnUkCpdV/TPoC2HLUjxBz/6q+MDtvRgLQdt6zZqHZsSavTflHJJAwEIQGBvBJDivfXYedQXKW7Uz0jxMuB127MGpxLiqd8F7qqZbsf2A7pKxBgp7iLJ/hyBGlLlrwvk8t/Kvi1IsVjkbpXO7SvlVqP/SssiHgQgAIE9E0CK99x7p1t3pLhR3yLF9cF7NlczZWO//1tamzFijBSXUiWeCNSQKqS43blUo//a1Z6SIQABCKxHAClejzUllRNAistZVY2JFFfFeZCs+pbpsTPEmvUdk8ZirPL65BsprtvHp55bDalCipc9S374F3/ZWUCN/uvMnAMQgAAETogAUnxCnXlCTUGKG3UmUlwXvJ8ULREdG6ZcnCXRGgQrbVdAirvIsD8l4HOl9OnoaXq/RopNov76e3/+zvE7x123WCPF9ZmTIwQgcJoEpoy7TpMErdoSAaS4UW8gxfXAa7ZWA9KpT1KfenG2gHSJuEWH3ymu19enmpPPla5zqbTduutB74Uxdz6U5l0rnuq3hZ9kcnskuV2i6zj6ySbVW0tXXB3TNYEAAQhAAAL9BKaOu/pz5SgE5hFAiufxm5waKZ6M7kpCzxL33cp8JVHYMfXi7Fu29fvHuWDRmSPFb/3RHx9/JsYDcq31hNx/98Z/yBVZtM95FUUm0ioEfK7MleJa+SzZaJ1/W5Bi3Qp95xv/+kJ2f+VX/tVB77c0WIj1vtNscVdQu5DiLjrshwAEIPCYwNRx1+Mc2IJAfQL8TnF9pkU5IsVFmIoi6bu9XWJaksGci3OfkFtQpkqxZqQssLm1BvFTgvOakpY0yxDwuYIUL8M3zVXvLUmu3wtxLQl20O8W65jea33fJ1Z8xUOKTY41BCAAgW4Cc8Zd3blyBALzCFzTBzlhfQJIcR3mvl10zncx51yc/d3i3E80WXTmSLFmstJZYc1meRCfm9kaIuu0Q/E4vh4BnytI8TrMLbta63eJJcn6nWLJr94fmhH2LLLWXbdMx9oqHVIcibANAQhAIE9gzrgrnyN7ITCfAFI8n+GkHJDiSdiuJLp79+5xEHvlwIgdcy/OXTPVFp2pUtzXhF//jXvHdsdZrb748RhSHGlsY9u/r40Ur9Mfll8JcQyaDfb7Q2tJc2lAiktJEQ8CEDh3AnPHXXP4vf766xfX+Zdffrk4K6VT/PgZ8dRTTx3u3bt3ePfdd4vz+fDDDy/l0Zc21vXWrVu9ZTzzzDMX+T58+LAzruoc2+Dtt99++yKN2uT9iq8658KLL754jBfTxniqv+M4P63VFpXx/vvvx+jNt5HiRl2AFNcBX+PCOjcP3botMU7DklLsWSzNbo0NvjCNTUf85QhohlH9Mjf4nJsr13Pr0Zde7Wz5nWJ/LaHr6wcW5rH/cFK7mCnu63mOQQACEHhEYO64aw7HKLZ9wucyJK1ROD2GStelgp1KseSwK8Ry+6RYEhzr05fnWClWvl35WXhTKZbs+lisV7qtOFsKSHGj3kCK64C/ceNG788ilZQy9+LcJTQWlNozxb71U2I8JfiiNCUtaZYh0HUOjS3NT2J/4403xiZdLb7Ovz1Icckt0xGa2oUURyJsQwACEMgTmDvuyuc6vFeypmu1xFCSqe0333yzM6HiWyIlcJr5jEEy6HwUryREKVYaLbmZWOXtumrdJ8V37tw5xnVdJNNDwe3KzVRLglWm/4HQVUeLbyrF3q/06THVSxxVBlI81EtnchwprtPRetPOHYjOvTh3CU1NKdaMsNqq5ctf/qXD2FmsSNv5uN2t1pph3/KMZmS29HbXOTSl3BrviSnllqZR/ZDiUlrT4nlg5Pd6us4NUqaVRCoIQAAC4wl43DE+5bwUvh1ZEikZ1rWxb4Y3yl1fyRLLvnxi2ijFltlUthXf13HH6ZNiC64k3rPLfbdQK3+n6ZNiiavrkZstNp/4meJZ6xIxj1y2sM1McaNe0AVBb0bCPAJiaCnWrHE6+FvytcrTzzL5YV+p4C0lxWqTxHjKQ7ZEe0kmU/JOuc07I/aZGiler9/i7dPaThffPp3u9+uumurc97WoK85a+z2Iyc0+rFUHyoEABCDQRaCVFKcSZzGUTKbBctc1S5rGL30dpVhCqs+OVCC9X9dyi3yXFEtIlYdnXR1fMt0X3PYhKXZdchxSniovrU9fHXLHIp+ciOfS1NqHFNciOTIfpHgksI7ocSCqW0Y1KB27fOUrXzl84xvfGJ3Ot6h2CU1NKY7N16yxpFhtn/OdYqXfwjLn57Qil1rb//2///fDv/k3/+bw2muvHfSPjz/90z8tzlpPI/+v//W/Hv9R8m//7b89/J//83+K0nadQ0WJk0jxPZEc2sRL1a9vplhfD8h937drvxqlOyeUpu93hN14ye2c817pc2FL3JHiXA+xDwIQ2AqBFlLsW6ejgPpamZup9QztkFyOZRqlT9uuQ5xtlQzqM0X7LLldUux6ug2W2NjOXB1LpVhpXcdUUnNS7PKVf+6fDbm6xH2RT1pejLfENlK8BNWCPJHiAkgFUWp8p7igmN4oXUKzlBSrMpIAXTD1FOqxYY4QLJFW74XW4Uc/+tHxu+kf+9jHrgiT//nRVUd9j1e/V62HraV8SmfBazxF3fVTHXRObjWofn1SHGdqYxu69iuOfrZM+Zb8kwgpfkTV/82PAzEd8YAmDkY0sPGgyOe4BmLpgEeDMg3EHEe3Eyq/GFSe9juOBk6xrBiXbQhA4DQJtJBiy2WU3L5bqH2d6vvO8ZTeidKnbc9Ie6ZXeeq66Neud5cUW27j9djX4b5bqJ0uvUarfF2TdY32tdmfC0qjOjvkpFjHvN95WNidrm8d+bj8vvg1j3H/bk2aI/JCikfA6okqjhLjlqHF06eR4no9/mu/9muHv/N3/s7FIN2Dda+7pFi3zkuGHS+3LpXimgME1QMp7j8/fCv0lHVXzlviboGNg5e03qVSrDw0ENIA0fkprQZdccCiMhUvDiCVRvs8WHOZcVDqAZ+OESAAgfMgUPMzr5RYlyjqGqXrt69Tzs9iV/vaFKXP11SXJfn0NdEi6dc5Ke6SeqeJ11q3y2u3u0SKlcafK/G673qnjNQuH0vHRvpciHm4PltYI8WNegEprgO+5gzb1BpphlBylIa5M8Wa/dIto+l3hyXEzz33/PEiru2xIb1AtX6t90Kr8Oyzz/ZKrdjkpFi3SV+/fn0wLVJ8tWfFtOVM8dUa1dmjdm3lnxEevOTe2x5oWVDTwYxnBDxocTynMy0NeryvK47iauDlgZnyVJ3SQZhmM9J6uBzWEIDA6RFYW4p9XZMYp0HXJ12XfD3zcUtd7WtTTopVtuqga7fKjfWMx1w3r32tT+suwVd+uv52hbFSbIZKl8p8FyNJu677/oeE6uRF+XSl66rz0vuR4qUJd+S/hhT7lgyfgLl1R/V6dzuf9E3Ym2ihg37IldYtgsU3V76PTf1JJt8Sat7peu5PMmkAv+bicz5tRysp/vznP39xcY51+tSnPnV46aWXjv/oUB9qRjgGvc7dKq08dNeC/lEjrrm0MZ+4XXOAoHpsRc5iG72t+iHFprHM2gMlD1xypWgwor5IByUe+FiK/VqDGu1LZ1OUtweVuWMa4GlR8OBuyzMFOVbsgwAE6hKo+ZlXUjNfe/wPupjG10Jfp3xM1yldI+PdLz42Z52TYuUXxdHXX+133XVdT4PFtuvam7vGOw+n1TU+DSpfaWM9FMefLd4vZn1lpPnqtdI6XRTsXNy19yHFaxP/cXkWhCWLX0KK/ebUm0DbWwgSlK6HNUlgJCqq75yl6xZt3z6r75WmYa4UKz+JseQ31l3frZwyQ+z6OS+/XmstUXPZcd1CijX7G+ug7X/wD/5B0Yef37sxvc4/zR5PDTUHCKoXUtzfE3oP6S6MNHTtV7y+B33p+Ja4e+BSQ4rVNg0KPYjxea8BowdiLs/H0nUcbOpzw4Mxx8sNVNO+4TUEIHA6BGp+5pVQicLp605u7Wua8vQ/+2pfn7qk2CKaiqLH3akU+9bpXDvivq76+zo8Ror9T1LX0Z8L6T9Xx/RJ7X86lJTdFQcp7iKz8H4PrJcspqYU66T1BcJvtq1IcZ+Yiq8ESJIwZ8ndQivhFovcrdMqt4YUL3F+uP+WyLsvzy1J8RNPPHFJij/zmc9cmRHOtcV3Jpih1rm7BHJp+/bVHCDoHzjKb6tBzFrOFPtBWxLgGLr2O47iq+6Klws6tpV/RlhSa0lxbK8GRR68WXb92dBXXszD2/pccV098+BjrCEAgdMlUPMzb4hSyVhY128tcVzrGWQL4FA5pce7pFj7VVYqv11S7Jls171rrTxzQfuVZowUK594zZ4jxc4nMs/Vc819SPGatENZa0hxKO5iU/8Fi2+ciwOZDb8RY/y4vZUTWbO0qlfXbHGmaVV2WfIkv7mAFF+mYl7xHNL22gKnB2vFOnz84x8vEmK1RudYTFtLgmoOEGrmdbkH67wSv1Ipjg/CilIa92vbXzUY8/RppPjR7dPpddwzAZZUiWtu0KTBkAdbiqN+1bovqKxUnD1ATAeCfflwDAIQ2DeBNT+n/E+8rhlTkfQ1TDPKMVj6JKB9QWProThO72uerpnp9dBx4tpj8XiNVDpLbZzdjum07Rny3LXZ6XPXdzPz50DM158RSu/840yx6ptLF/OIddM/LbYSkOJGPaELgt4Qa4dTlGIx9AO3ugS1NmcLr/qxKzjO1O8Ud+U7d7/Ouxbn3lak+B/9o390SWy/+tWvFiH1nQHmp7X21Qg1Bwg186rRtjQPcSuR4si5dBspfkTb/4EfGnBpQOPZXqXUwMmDQA9qPCDT2kEDIA2I4iBTA0Lti/FUvvJxPNVLZcYBmvOP+1wOawhA4DQJrPk5+HxwKQAAIABJREFUZXEbkq+cJMZZZl0b4/VNPaNroe+UUfqSoOuiP9OGrtHKz9fIKMW6XiqPIRHPpXUdc+31MV23lb8/B7zfa3/GuB2pFGu/8lf6VLpVd9VbceLnj/OOfLrKd9za6/WtrHYLdpqfLgg6IdYOpyrFkhN9t1jLnO92lvSHytKTh1VWnxQhxZdpbkWK098i7uvD2AL3pz8EdJuy9uWW0jydf80BQs28XL+aa/FDimsSvZqXByxDAy4NVizB6hel0+BG23Ewom0PLHVMg510cKhaaF/Mz3laePX5o7y034vi+/jVlrAHAhA4RQJrfU5ZanX9Ggq+bqbXNv8T0NesrrXSl4QofUPXaOWXE1tLZVrXtPw4q+tjluG0HVFsfZ2OnwNOr7XzdR4xrYXdx7rWuvbn2h/5dJUf61Jz+5oqS1ifwB6kOEfFb06dN0Nvxlz6JfdJhiWqkpWxUlJaL+Wr/NX+Bw8e9CazRDFT/AjTVqQ4XqB/4id+orcP40H1d0zbt62+HxNqDhBq5jWmDaVxxa1PipVPent06euSOigv1eGUb58u4UAcCEAAAq0IrPU55Vlc363S117LXJdAS9DSf/oprvans6F95UTpy0lhmtbjbkt3nNzS9lDwPzT9z8caUqwy/U8EfZ5GKdYxtUtcLO9xvKR9ff4Q+SDFQ717IseR4mU60g9Ckrj2zRjre8gS6PhG9bbS5kIU4pKHKyHFlyluUYo//elPX65kz6uu+vu8iWukuBukOA1JcXfq+UeQ4vkMyQECEIDAHAJrSfGcOpL2/AgwU9yoz5Hi5cBLWCW8WrrkRIIrycktuSdNKx9LdIkQq3VI8eU+7pJKvRfWDFFe9ZvEpWHJmWKdW11PMS+tn+NtfbCxJSlOZ6BVN80gp/v1Oj7oy6zjWml1jhMgAAEIQKCfwNY/p/prz9FTJYAUN+pZpHhZ8L6VWgNVPTF46u3UmlH2Tz71SXauNUjxZSpblGKdH6XnhvtTabTofPAHe7ruu0vhMpVHr5RfLaFyXXLlbGGf2to3U6zf4NbTpKcsH/zorwab6Jli9+PYtdLnQs0+zOXPPghAAAKnQmDrn1Onwpl2jCOAFI/jVS22LggaRK0d4ncRppTv7zYobd93AtZuV648yY6fSq36So5LZnmVTrOClmGl1XapPLkulii+U/yIyFak+BOf+MSl2+b1E00lwT/9pfPBS0m6kjjKDyl+RMozsmY8Zj3m6dNj8o1xkeKSM5o4EIAABLoJIMXdbDjSjgBS3Ig9UrweeMmppNa3P2uAq+8NS5glIl4Ux/2iOL6lVTI0JSDFl6l1SXHXd7gvp6736hd+4RcupFb9LEku/YeHnjoeBUl9XCMoT6T4EckxM8Xf+e3fOTz33PMXfVIixSpFYjt16ervmn3YVQb7IQABCJwCAaT4FHrx9NqAFDfqU8vX2sWf00xxjq1mgCXD5h8FR9vaLzlWvLkBKb5M0DxS5nq9ZnjrrbcuJMp1ef7554uqkIq9hL5UqPsKUD2Q4j5Cl49JaHV7tYVYa73umsW9nPqRFKf75r6u2Ydz60J6CEAAAlsmgBRvuXfOt25IcaO+t5StXfy5S/GavC2B3D79iLp5WETjes1+UVnpjK/q8vTTTw8Kbu6p5TXEuKZQbX2wobb2fad46FyYI8PKW+KsOqQ/yTRU7tDxmn04VBbHIQABCOyZwNY/p/bMlrpPJ4AUT2c3KyVSPAvfLhJbAl+99ZXD1177+mYWDd61rB3Mw+XH9dp1+eEPf3j4+Mc/fmXG+GMf+9jxu+d9t8zr6eSx7trWrfaa6e1L19dG5VFzpnjtW9L72pYeU1unSLFuq/7yl3/pyH7szHCsA1IcabANAQhAYH0CSPH6zClxmMD6I+PhOp1FDKT49LtZt9Xq4V6++E9d67d0tUxNn6bzLOnaPbAlKVbb/+zP/iwrxhZe/VyT5PK11167gkq32DteulYaHR8jycqjlhQrH+W31aC6jZHiKMNKq+8Rl94mnWOAFOeosA8CEIDAegQ8LlmvREqCwDCB7Y6chuu+6xi6ILQYuHL79P5Om9ofHq2kaWtSrDNBYvzEE090Cq7eo/qHRC70ibHSaVGbS4LiIsWXSaUy/Ou/ce/ww7/4y8uRJrxCiidAIwkEIACBigRqj2vGVu3ll18+fkZ/+OGHvUl1/M6dO5fGCEr79ttv96bTr7M89dRTF+lefPHFxX+xRWWmddXY4t69e4ehdsbGvPnmmxf1fvfdd+OhS9s12vjMM88cy1KZQ0HlqT3iv1RAipciO5BvKyl++PDhxcmuk2ts8EmptNomLE+g9ocHUny5zzSjnz6RWue3ly4pVi56IJtn3h0/rpHiy6z1Snz6Zorf+qM/vrhNWnFrybBrghSbBGsIQAACbQjUHteMaUUUxz5Z1DFLW/xc93aXyFm4HS+uVfYSQZIey0m3JeiaFBsKqSN0SXGtNtopSkRX/1hQu7q4D7Wt5Ph4KyrJlTiDBFpJcXzj6E0yNvgE1omJFI+lNy1+7Q8PpDjfD/qe8SuvvHL8iab4gdInxc5Jv3+tW+VjOm0jxSb0eC0ufVLs3ymWDH/vz98Z9dNJj0vp3rIU6/vJemjX2KUrZ7Wr1mx/VxnshwAEIHAKBGqPa4aYSO7Sz2e97pPiW7duHdNIxqIcen9uDO0xso5FefN+lSnxrB00tpdYalY4Bu23TGrdFyTN+ieA6m5Wsd1O67bUaKP7RXn19YXvch2K5zpOXSPFU8nNTNdKiv1m1gk/9AbJNdFvBqXXNmF5ArU/PJDi4T7T7PH3vve9w3/7b//t8Kd/+qfDCUIMPWxLi4S49Oea9H6qJVSt+jcg6N1UW0ukWPHGLiW/U2wpHpu34yt9Luh4rT7M5c8+CEAAAqdCoPa4ZoiL5cvXca/7RMxymBNDi2YUX9XBM6i58bGEVeUuNVvcxSC2vau92u82xcmzXNtrt9Hlpixje+wecpglA1K8JN2evJeSYv0HSidsenLpxI5CrDdm7k3bU+XjIZ+YU9MP5c/xqwRqf3i0kiZJoj+I0vXVVp/XHvGoJVSt+re0x9TWLUgxM8WlPUY8CEAAAnUJ1B7XjKmdBNBjkC5JtBhqPJ0LHgtHwXW+kulcsJxqNnbN4HqpzV23UFt05Q4xfirFPlazjWbZxVqsfBt7dBunc196rT7paqfyUjqLeExz7PM1O4ayHhNYUordyX1rnRBDoeuE68tXaQh1CdT+8GglTUhx93mh9xRS/JiPZmOnLI9z6N7yTDG/U9zNiCMQgAAEliRQe1wzpq4WO33uajsXPP6N0hvj+bu3cSxdIr2efe4qN5ZRazveepzL0xNmHr9HPqkUL9HGWL8cF5eZirhZ5pxEx3JibPnvSnNNT1AlrE+gpRTrpMideCkFXxRyJ0/XPr+p0rx4PZ1A7Q8PpHh6XyyVUu+nWlKs7zbrd5O3GtTWvpnipeuNFC9NmPwhAAEI9BOoPa7pL+3y0Sh9XWNh3+qcfkfXOeVEzbPLUZQd32uLXCqbOi4B99haM6NxVtTpXfe+MhzXa4/lc7ce5465DNUlrefcNrpO6dqymnMI17HrHxQxL4mw80rba74pW7VX/Sym19RowvoElpJinRA6gfzG8xtMa50QOqFLg0/EmMfQdu6ELi3v1OK99957h1/+5X95ePXVW7OWF174Zwctc/Nx+pde+sLxwrs2b2aKu4nrfVVLilsONrpb+PiI2ooUP+bBFgQgAIFzI9DycypKn7ZzYW0p9mxtOsZOpdwz1CWCqHbJCeQDuZlTSbfKk0TGEPmsJcX2jbQuqpdvnS71FzNSOgdxMFsd7wpIcReZhfcvJcULV5vsRxCwBL566yuHr7329c0svjCMaEqVqObh8uO6SgE7zkQskOJHHagnTmsZEzT7q4dsaT0Ups4U63eT9aTqrlCzD7vKYD8EIACBUyCAFD/+/V/POmumUvKmYCnX50oURc+C5maR0/NCeVko0/ixzPQfAy2kWGV6Ms8M1B7XMwpubKdEWaxy/1RQfg7+B0BXPo6HFJvEymukeGXgDYqzBL7z/R80KL27SMtod4xljpiHy4/rZUrcT65igRQ/6i9913fs930lxGI45unTY8tQfJXRJd41+3A/Zy41hQAEIDCeAFL8WIo9S5qKq/frsyUuJbdOSyx/fDtw9qG6vg065tu37btAna6vDpbbdJZ56Cyx8Lssxfc/B3Iz447fVe8oxWaZ3lKd1gkpToms9BopXgl0w2IsgUjxo04wj9wFrGE3baJoMUGKH3WFpViCW7poFlcMS6RYpXSJbd/JgBT30eEYBCAAgXICW5diS1ROxtRK36Ib5XBoVlPpLIxxdlZl6PMrJ5GS0Ch/2o5pc8TjDHEUzBjXcpsbj+X2OZ+pbYxld217NldtdPBMd3rLs2VZddV2/IeC64gUm+IO1kjxDjppZhUtgUjxI5DmkbvgzkS9++RighQ/6kbLZ+48GdpXKsVTThjXq0uoa/bhlPqRBgIQgMBeCGxdii2NUdAi25w0+7bjKGMxjUV66BbemGbstoTQ4m2RHZuH26HPtFTUfWyJNipv111i38fL8dRPachJsYV7iD0zxSnNlV4jxSuBbliMJRApftQJ5pETm4bdtImiawpVy8FGCUy1te9BW5LP5557/ngLtbZLF+WLFJf0AHEgAAEItCXQ8nPKYqfPDG3nQhS0VAwV37cmxxnKuD8npJ7d7Jp9ztVjzD6Ln9qVk8XSvCKfvrYv0UZ/N1h5m5fWabAU5+qXk2JJtrhoSWedY95IcaSx4jZSvCLsRkVZApHiRx1gHr4wxXWjLtpMsTdu3DjomlAjtBxslNRf/T4kxRLhMUEyrHyR4jHUiAsBCECgDYGWn1NR+rqkWFQsaBJgSZWD90vM0vSSOX0W6VgUU+/Xsbjfec5dO3/NhOZEcUz+kU8uL5e1RBst9mLedeu02uJ/SqQz+RJoC7PWMbjflG/8Z4baq3Q/zpOfZIrQ1tpGitci3a4cSyBS/KgPzEMfCunSrpe2UXLNAULNvJago77vk+Lv/PbvHLSMCXpatUR67FOrx5Sh/FV3bp8eQ424EIAABK4SWPtzyrOH6dgjvk4FULJkMYvxvB3FKrZQouY46XqpWWILX1pe+lriNxSGpFjpl2yjpVZ1F/9c8K3Vafv02sKcSrHa5WO5dMdyb9++nSuPfQsTQIoXBryB7C2BSPGjzjCP3MVo7e766KOPDnfv3j1cv3798OSTTx5u3rx5+OCDD9auxkV5NQcINfO6qGDFDfV/nxRXLKozK4nt2AUp7sTJAQhAAAKjCKz9OTVFitUgiZQfhOWxi4RwaLZXs6lR7iRj2rdUWFuK1Y6l2hh59zFTH0TJVb/oHxXu61SKzV55pv/s0EzxMZ0jsV6XAFK8Lu8WpVkCkeJH9M3DHyxxvWb/SIh1u7LK11pC7Lrcv39/zapclFVzgFAzr4sKVtwQ69pSrNum9RvCH/zorwZrKhl2f09ZM1M8iJgIEIAABHoJbP1zqrfyHDxZAtw73ahrkeJG4Fcs1hKIFD+Cbh45EVmrW6IQRwHWLLFnjd977721qnNRTs0BQs28LipYcWMJKZYQK9+S7xQjxRU7syArvbf03u9bCrIhCgQgcEIEtv45dUKoacoIAkjxCFg1oyLFNWn25+XbK4Zud3Euuv0iflnfEqfbU9LvnDhNbm0JnCPF+v3VX/+Ne5dmtnQbp/ZPDW7P1PRT05mHy4/rqXmOTadbplXuG2+8cSWpZFi3Umv2eO1Qc4BQM68lOIh/7ZniMVKsNo29dTrG72KidtX6Wa2uMob2P/XUZy5dK+J7TNu6Fq4dfvmX/2VvnVQvXRsIEIDA+gTi90e1XRJ0+2m8xdXXGY2bSvPY+udUCQfinB4BpLhRnyLF64EfI8XxA8IX+nTd9XCFtEWWwKlS/MO/+MveweTYhxG5fm6PX6+1Ng+XH9dr1EHSqzJ1u3RXkCwrTpxF7opbc3/NAYLqL/nfalD9WkvxEmzUrtZSrDp87bWvH/mKcVy0X8fXDq++euvw6q2vHHQdTJf7v/8HxzohxWv3CuVB4BGBOOYpEVpNLug60rXoe5zxSc1dnGt+5nWVwX4IjCWw/ifk2BqeaHykeL2OHSvFiq//eMYLu7b9tD1d9Es+PCyBc6T4zjf+9ZVZYcmwP5BKvkOZknbadP+U17oduVQgzcPlx/WUssem0UMFVebQA7V0G7WWNUPNAYLa2FrO+tipfq2lWLdZj33vKH7f7dlb4N7HVsx1fO3lc5/7uaOo584JXRtVH6Q4R4d9EFiewBQp1lhIY6QY4kOPSu5IqfmZF+vBNgTmEECK59CbkRYpngFvZNIxUjyUtZ9YV3IrtiVwqhT31eXLX/6l42Cyb5Deld6D4q7jQ/stwvEBVUNpdNw8XH5cl6SfE0cirPJKnrYvyVfcBw8ezClyVNqaAwTVHSnuxu/vFOuW6zHBt2grfS5sgbvq0PUPB0ux1msuN268gBTnThj2QWADBMZKcV+V/dRfXYeGJg5qfub11YljEBhDACkeQ6tiXKS4IsyBrGpKsfMquYXaEriEFPvnYab8Lqs+sLSMCTkRdj6leZlHTOftMXWZEte3RZc+REvfLS4R6Cl1yaWpOUAQU6Q4R/nRPkuxvquvfyqVLv5u/96luJvMMke+8IVfRIqXQUuuEJhNoKYUx7zinXa5Stb8zMvlzz4ITCFwbc2B35QKnmoapHi9nrXIlszuDtXKM8X64fChYAmsLcUalD/33PMHzRZPCaUiOiTCzkfrkmAeMZ23S9LPiaOHZ425JVrXRYnxWqFmeWK6dynWOT5m8SxuyZ0Tytfn3ZS10ufCFrirDkMzxbm6L7kPKV6SLnlDYB6BKLJDs7tDJUmEdQ3q+n3YmB4pjjTY3gqBazqBCesTQIrXY15Lin1rkMS4JFgCa0uxvmes9+1bf/THJdW4Ekdpu973Y0TY+XTllRZsHjGdt9O4NV/71ukxD5/SrdOq21q3UEtiSzkOsVE+e5Zi3wXhc2PMeowU659KKqt08VcWkOKhM/DycaT4Mg9eQWBLBGpKsZ5Kreu1fqljKJyaFOtp3BprEvZNAClu1H9I8Xrga0mx8ym5dVqtswTWlGLfwjn2+5CRtiXD+6aKsPPRuiSYR0zn7ZL0U+P4O8Klt06rHDFR3da6kwYpfty7a0nx2PeQZ6OR4sd9VbKFFJdQIg4E2hCoJcWaJdYM8VafPq07BfVwMN/t57GHxnWS+b4gRrm0euCYxoNaStvdVw7H2hNAihv1AVK8HnjL7Jzbp/3kaf03sDRYAmtJsWeIxw7m0/r6w0CzoL5t1/umrtXWocXf682VMZR2zvGXXnrp8MlPfnKwfmkZU9Ol+ZS8Vj+IS0ncoTjKR/kNxWt1XPXrusXX56rEc8ri9ENriffY3/pWfKXrClvg3sdWzHV87VAixbo2tDofKXf42g2jfTPqe8/XkGIJsWWzdNJg7ZliSauuf12Lxni5oHFjV5q4f0isc3mzb3sEkOJGfYIUrwd+rhRbiLsuml0t0UBCF825Uiw5sBCPHcjn6hYv5Gx3f0jCZjk2Q1KcO2+3vm8r50sX2y1L8VbYUY/l3vOwbce272cT50qxhNhjrDFiuLYUq46a7dXX4GLwLd86P9OJEz07xuetxn+p8Cu/eDzmy/Y+CSDFjfoNKV4PvC/Y6QWvpAZThVh515DiH/7FXx4fqKULb8n3JUva5Iu4vmurGRo9hMr7pq5LZhJazBS7TH14ldQxxvkv/+W/HLl885vfHJ025lOyXWum2O397ne/u3idS9qVi6NzrEvcSs7fGnE046vf+64Z1K7WM/R9bLcsxTpvc+cK+/Y9Q0n/baP/+q5zc6Q4zhCPEWLVZ20p7mOg70Dr2pm2wbPfXd+RtjR7FjpN31cmx7ZJAClu1C9I8Xrgp0ixPiicruuCONQCDQh0oZ06UywJVno94EdyXCsoTy0xzBXkmFfXtnm4/LjuSjN3vyVR7ZsS1vppprn1dNvMWOutBvV7SynWnReqQ+5W6DmyrDxbP+Csj+2WpXjL5+tW30fUCwI1CEyVYs24zpHBLUmxJz/ixIlvm1YbxSgXJM0SYS269uo1Yd8EkOJG/YcUrwfechsveH2l62Lv/xBqhnFqsKBMlWI/2EcX265FP800NjivrnRTBLkrr7jfPFx+XMd4Nbdv3rw566eV9D4d81NOU+tuNnPloFY+U9tRkk79vkUp7pPl0nYhxVdJlXyneO55f7VU9kAAAiUEpkixbiP253fpuCqtyxakWDPdniVOJz/0/Bi1ses5MunTpv0PAuVJ2C8BpLhR3yHF64EfI8W+HUYXw/T7I2NrbEHZmxTHdpYKckzTtW0e/jCN6640c/fP/eCt+VTovraYzVw5qJVPX13nHlO/I8VzKebT97H1TPHXXvv6Yc3ln/yTnz+Wl6uxro2q89zzPpc3+yAAgWECY6U4zoqm388dLu1xjLmfzY9zGr/lMaGuPZolzt327Nnj3DhQ+yTBUYA9kTL1nwTjW0GKJQhcvodyiRLIM0sAKc5iWWRnvADqIti16MPBF/yuOHF/1y01boQFZaoUO5/aa7dhbL59glySl3m4/LguST8ljsoY8/vEaRn+veKlB+1mM7ecWvmkHGq+Vp8gxTWJPs6rj62l2IPRtdYvvPDPkOLHXcQWBDZFIEpx/ExOtzWOUvDMano8fe34XY319afr+JL70zGhBDgVfMdJJVciLCFOZblPopdsC3nXJYAU1+VZnBtSXIxqdkRf3NKLdvoaKS5HnQpySUoLW8pdr5cI/q3hObe06reNVT9953fJYDZzpXgtiZ/DQjyR4jkEu9OK7W/+1rePzzHQP+Piov1Lvde6a3Q4vPrqrcMrr3zp2Ofq97i4TnPP+77yOQYBCHQTOEcpjjQ8EZLO/HrcmEqx9uduqUaKI9X9bi8zGt0vj9VqjhSvhrpZQRadU5kp7gIpQS4J5qGBebqUpB8bx+XNHXCrrnPEuqTeteq61u3eJW3qiiOeSHEXnXn7/+E//Jkr7634Xvupn/qpeQVMSP2tb32rt05PPfWZQ+k1ZELxJIEABDZIoOVMcYrDP60UZTcnuYonKc4Fbp/OUdnfPqS4UZ8hxY3Ar1isRefUpbgUqXnEQbq3S/MYE6/WrOkaT6CWFIjF3BlppHj4DIkP1NJ2XNQHegJ13Jdud5WgtEv/86SrbO/XeaT3WdeCfJoUawhAoCWBLUmxZoN1/ZYIO0iQtc+irOfNpLPJjqvZdh1T/Pg9Yx9nvR8CSHGjvkKKG4FfsVhLIFL8CLrFTx8c6aLblGuHWoK41oe3mMyVqlptrt0XMT+1cwszxek5WPpakpwLNfovly/7IAABCJwagbU+V0u46fvBun5HKbYoawZYoqt17oFcyt+3YCsOYd8EkOJG/YcUNwK/YrFI8VXYXeIhVrXD7du3Z/0ck+uz1od3DalCit1r3WtJbdd5WLIfKe5myxEIQAACJQTW+lwtqYtvlU5/gtO3RGsWOApzzHPu7zXHvNhuTwApbtQHSHEj8CsWixRfhd0lHUtIca0PXT29WvVeOqiMuTPFtf4RsGRb1c6WM8VqW3pL9JjXXWxq9F9X3uyHAAQgcEoEan0+lzDRTK6kNpVezQBbiHO3Rsef6FS89KFb/i6yrv1d0lxSP+Jsh8DyI73ttHVTNUGKN9Udi1QGKb6KVR8euWXLUrzW7GsNqVpzoHG1d8v2qJ2tpbispuNi1ei/cSUSGwIQgMA+Caz5WeXbm3NjD+9LhVdU9V1hzxY7Xm4tIVZcwv4JXFMHE9YngBSvz3ztEpHiq8RzHyjat4QU13pAlqVYP/G0ZKhR3zUHGlNZqL+R4qn0SAcBCEBg/wTW/qySGPvhWXEcon3pbxSbro7padMSXs0Kp4IsGU5/r9hpWe+TAFLcqN+Q4kbgVywWKb4KO34Yxe0lpFj5z70dWS1wPy5Rx0ioxiChRh6xTktsq1+Q4iXIkicEIACBfRDY+meVJDp3S/U+6FLLqQSQ4qnkZqZDimcC3EFyyxRPn37cWVGE4/YSwnmOUlxjtvlxby2zhRQvw5VcIQABCOyFwNaleC8cqWddAkhxXZ7FuSHFxah2GxEpvtp1UYTjdm0p9s8/zf3dX7XA/Vi7jimdGoOEWv8ISOtW8zVSXJMmeUEAAhDYH4Ean3f7azU13joBpLhRDyHFjcCvWKxl6jd/69vH20V1y+gWFsvoiiguinLZ6bq2cJp9jXxrCvYFiMxGjadci2uNW8Yz1au2S3Xk9ulqOMkIAhCAwO4IIMW767KzqDBS3KibkeJG4Fcs9r333ss+aTkVwlavV0RxUVRXW2vI60UhC8zuqt5Ly6Yf6BXbMXZ7jXqOrVMaX3VEilMqvIYABCBwPgSQ4vPp6z21FClu1FtIcSPwOyy29odHDfmaihEp7ibnfpn6lGvPjj948KC7kA0cQYo30AlUAQIQgEBDArXHNQ2bQtEnRAApbtSZSHEj8DsstvaHh+WrBQqkuJu6ZFZ8ps6aW4qnpu+uWd0jSHFdnuQGAQhAYG8Eao9r9tZ+6rtNAkhxo35BihuB32GxtT88kOLxJ4FETtyWDHOldm76JdsW80aKIw22IQABCJwfgdrjmvMjSIuXIHBtiUzJc5gAUjzMiBiPCNT+8ECKx59Za0ixv4N+//798RU8HA5Kp3oqny0HpHjLvUPdIAABCCxPoPa4ZvkaU8I5EECKG/UyUtwI/A6Lrf3hgRSPPwnWkGLVak45Lft1DFGkeAwt4kIAAhA4PQK1xzWnR4gWtSCAFLeg/v8/HRcpbgR+h8XW/vBoKU8SotxS+3uwtW8lniOrY065OeW07NexbeTp02OIERcCEIDAaRGoPa45LTq0phUBpLgReaS4EfgdFlv7w6OlPOUfyGoZAAAgAElEQVSEWPuQ4kcnpljo94qnhBq/czyl3LFp1EakeCw14kMAAhA4HQK1xzWnQ4aWtCSAFDeijxQ3Ar9isfppnTfeeOP4gCaJ6NTl+vXrBy1T06fpWp57SHH/CThnoDAnbX+t6h5FiuvyJDcIQAACeyOwl8+rvXGlvvMIIMXz+E1O3VJMJleahKMI+BbeLhFsvX9UYypF7mozM8WPAM8ZKMxJW6l7i7JBioswEQkCEIDAyRLYy+fVyXYADcsSQIqzWJbfiRQvz7h1CZbid77/g9ZVuVS+xfTSzpVeuOx0vWUpnvtU6DFodV24cePGmCQXcZ988snD7du3L15vdQMp3mrPUC8IQAAC6xBAitfhTCnjCFzbwyBqXJP2ERsp3kc/zaklUnyVXirDfl1binXruvLWreNzg/uxdh1z9ZrzveBa7c3Vq+Y+1ZPvFNckSl4QgAAE9kUAKd5Xf51Lba9pgEJYnwBSvD7ztUu0TDFT/Ji8rje5ZQnhVDl7k2LVd8o1+YMPPqj2T4DHvbXMltqHFC/DllwhAAEI7IEAUryHXjq/OiLFjfocKW4EfsVikeKrsHNCrH1bluIHDx4chXOJOqaE7t+/fyxLt2yPCT7X1qjjmHrl4iLFOSrsgwAEIHA+BJDi8+nrPbUUKW7UW0hxI/ArFmtRYab4MfQ1pVhP7L558+bjwiduTZ29nVKcz5mxcrumuE9pV0yDFEcabEMAAhA4PwJI8fn1+R5ajBQ36iWkuBH4FYu14CDFj6GvKcW1PnTXlGLfBq2f8hoTXEd9l3rrASneeg9RPwhAAALLEqj1+bxsLcn93AggxY16HCluBH7FYpHiq7DXluKpT3KONdfDCPVk57WCGElyxwRL8Zg0reIixa3IUy4EIACBbRBAirfRD9TiMgGk+DKP1V4hxauhblYQUnwV/ZpSPOdJzrHma394S+RV5pig+LpdfA8BKd5DL1FHCEAAAssRWPtzdbmWkPMpEUCKG/WmLggaHBJOlwBSfLVv15Riz57OvaV47Q9vlTd2hnuKSF/tnXX2IMXrcKYUCEAAAlslsPbn6lY5UK9tEUCKG/UHUrwu+Lfffvv4T4gXX3xxUsEPHz48pr93715xeqT4Kqo1pdj8tZ4TVGfNOq8VLPNjylMdx95yPSb/mnGR4po0L+el76LrPOha9HTztcOdO984Xju73vtPPfWZg75LT4AABM6HAFJ8Pn29p5Ze0/flCOsTQIrXZT5HipVWMq1BXUspfuuP/vhYhz/5n/9rFjwPTmdl8uPEGsyOeSiUy07Xc8U11xZL8VwRUF3XFE6VpTJLZ7j1802KP6YfcrzW2qe68jvFy9AW26FlmZK7c3311VuHV1750rHP1e9x+c3fenSuL/H+764RRyAAgZTAhx9+eHHt0PbYMHbiACkeS5j4axDg/t01KGfKQIozUBbcNUWKb926dfEh4YFmKymWCH/5y790rE9rKbYI65ZdcyntOsdP10sNilXOHKGtJdalfBTPZZYyGRt/TF2WiKs+QYqXIHs4vh+72Gq/2Hswutb6p3/6pw+//Mv5n0bTk/lVp9JzfRlq5AoBCMyR4ikTB77+QB4CWyKAFDfqDaR4XfB7leLf/b37F+KpwaOWFlKcE2HXR+vSENPE7aUGxXpq9JzfKtYss+qp2di1giVXvz1cEsbOLJfkuWQc8ewStyXLXTpvtWvOP2Bq1K+PraX4a699/bDm8rM/+8zhc5/7uWzzkOIsFnZCYHUCU6R4zsQBUrx6F1NgAYHy0WxBZkQpJ4AUl7OqEXOKFMdyNUOsAefaM8UtpXhIhMXDS2TVt+346XopKZ77wVvrCdZ9THLHxKdUsNb+yahcfcfsU9uQ4jHEyuP2sbUUl+dWJ6YEHCmuw5JcILAUAaR4KbLkuycCSHGj3kKK1wW/VymOlH79Nx6J+ZIzxfoeq2ZHfX6m8tr1Otazb7sr/VJSLGFUmVODOIx9EvTUsmI6/bxS6Qz3XPGP5a6xrf5Aipch3ccWKV6GOblC4BQITJHi2O6xEwd7+9yKbWX7dAlMHy2eLpNVWmbpWKUwCjkgxY9PAoup91iEJWE+NnbtvIbWXfkuJcVzb39Wfdd88rT56fpQ+rvDrerouo5dq75I8VhqZfH72CLFZQyJBYFzJIAUn2Ov0+aUAFKcElnpNVK8EugfF4MUP+atgbMWCeMcEXY+WutW35IlponbmtEtST82jm9//tKXvjQ6f88yi9HYcufG9/VhKJ9vfOPRz91Mad9Q3ksdV7+fqhSr35biVpJvH9stS/FS7/8SZsQpu3bDab+cSn7JACl+PEZi63wJIMWN+t6D3kbFn12xSPHjLo8yyvbj70XDYj0WpyrFWziHuthuWYq3wI06rPf+h/W6rEse2ogUPx4jsXW+BPid4kZ9jxSvCx4pfszbA5Iat007r8e59285frpe6vZp1cYzviX/LY+113eJW3yfWHXQQ87EaOi3hzV7o3h7Cqpvl7jtqR1pXdUu9UfL0Md2y1K85Pu/ZX9QNgT2QgAp3ktPUc8lCVzb24BqSRhr5o0Ur0n7wHeKA26959P3/VxBDtn3brrsdL3koFj/JVd5ul28NFhKW3yf2HXUz0lJ6PuCriOtxL2vXn3H1BdIcR+h6cf62CLF07mSEgKnTgApPvUepn0lBJDiEkoLxEGKF4DakyUzxY/hWEgf77m8FQVZYub4fevLOXS/6spjSSlWbcb+XrFmaFXXNX+fOKWm7zIPPWxLdRwS5zTf1q9VZ6R4mV7oY4sUL8OcXCFwCgSQ4lPoRdowlwBSPJfgxPRI8URwE5MhxY/BaeCspTRoplXi1SfIpXm57HRd8p2n0jJy8cbeQq3Z1yEhzZVTc9+QmOsfCeI4Zga8Zv2m5qU6I8VT6fWn62OLFPez4ygEzpkAUnzOvU/bTQApNomV10jxusD3KsW/+3v3e2dqP/qbvxkN0kI6OuHhcOgS5NK8fN67Dl4v/V3MMbdQb+HWafHULLX4dH2v2E/WHvtd6dK+Wiqe2oQUL0O3j62lWOs1l1de+dLhc5/7uWyD3/n+D47n+NJ3imQLZycEIHBBACm+QMHGGRNAiht1vuWgUfFnV6yl2BLWtdYP0DvcunWrV0h1vC94Jk8Dv6lha1Ic2xEFOe7v2/Z5n/JfWopVJ810+/u3EknVX+VqibOtnlWWHLcOmq0Ws1zQMbcnd3yr+/rEbat1LqmX2rXGedxXlz62luL0vbfG6y984Rez1UaKs1jYCYHVCSDFqyOnwA0SQIobdYrloFHxZ1fsXqV4iY7yIHiJvIfy9HnvOni9hkyoDJX33e9+9/DJT37yyj88fuZnfubwJ3/yJ8f9W/mergX9s5/97KX6SojVlq5Z5KF+aHlc9ZagnVpQu9Y4j/u49bG1FPelX+LYq6/eOrx66ysHCXC63P/9Pziex8wUL0GePCFQTiBKsa4jXcuLL754kemciQONBbr+4XtRABsQWJkAUrwycBdnOfBr1qdHoMZM8RJU/GG3RN5Defq8dx28XkMmNDv8qU99qvPDXnX5+Mc/fjze8gFbkaFmgs0ot3799ddj9F1sqx1I8TJdlTtH0n3LlNyd66/+6q/2nsOq31beb92t4AgETpsAUnza/UvrygggxWWcqseyHFTPmAw3QwApvtoVPu/TgfoaUqzaeIY1LT++/sf/+B9frXiDPd/73vcGZUISv7cg1kjxMr2mOwf0Xupa4tcElqnB1Vz1zyhdC7sWhPgqM/ZA4NQJaCyghQCBLREofwTtlmp9AnWxHJxAU2hCBwGk+CoYn/dRQrW9hhT7AVpp2bnXV2u+/p5nn312UIpV99dee239ys0oUXVGimcAJCkEIACBnRNAinfegSdafaS4UcdaDhoVT7ErEECKr0L2eZ+K6FgpHpp9ys1K+SeO0rJzrxU3l0ffvtoP5vr7f//vF0nxCy+8cBX0hvcgxRvuHKoGAQhAYAUCSPEKkCliNAGkeDSyOgksB3VyI5ctEkCKr/aKz/tURMdK8RjBTcta6vXNmzevNvhwOEjgdcyDgNL1xz72sSIpljyX5ul4qo/q1SIgxS2oUyYEIACB7RDwZ9F2akRNIHA4IMWNzgJdEDQ4JJwuAaT4at/6vE/FdKwUK+e+Wdvcsf/xP/7H4e/9vb83KJqf+MQnRuet8vokU78p7EFA6frv/t2/O1hXcdRPTZXm6XhI8dVzc+4e9cWU83huuaSHAAQgsDcC/izaW72p72kTwMoa9a8uCEhxI/grFYsUXwXt876GFF/NfXiP5DQtO33d4mFEuZrru8Jp3XKv9UCuPQW1ge8U76nHqCsEIACBugSQ4ro8ya0OAaS4DsfRuVgORickwW4IIMVXu8rnfSp3a86wvfTSS52y+dWvfvVqpRvu+cmf/MnOuorh3r5PLJRIccMTiqIhAAEIbIAAUryBTqAKVwggxVeQrLPDcrBOaZTSggBSfJW6z/uWUqxaScKfe+65C+F8+umnD1uZIY7UfvSjHx1++qd/+qKekdsehVhtQ4pjD7MNAQhA4PwIIMXn1+d7aDFS3KiXLAeNiqfYFQggxVch+7yPcqftNWeKY6328sH8h3/4h4d/8S/+xVEov/nNbx4ky3sN6u/f/K1vH975/g9Oaml5Hu/1XKDeEIDAeRLYy2fvefbO+bb6mj7ICesTsBysXzIlrkUAKb5K2ue9rjtxQYqvskr3+HzSes/hp37qpy71fTwP9r7d6jze8/lA3SEAgfMjgBSfX5/vocVIcaNeshw0Kp5iVyBgidnqQH8FBFeK8HmfMmklE3v6YPb5tHcp1u85qw1rLDdu3Lgk4Ldv31603L4nkF95M7ADAhCAwJkS2NNn75l20Vk2Gylu1O2Wg0bFU+xKBPR7uhK+Ocv169cPWubkEdO2PPdcNlI8/gQ8FSke3/LpKdLzTe8DAgQgAAEI1CXw3nvvjRqjaEzzT//pP61bCXKDwEwCSPFMgFOTe7A2NT3pzoeAzhUttYLEQFLaIvi8R4rH00eKxzNLzzekeDxDUkAAAhAYIvDgwYNLd+Wkn/G513t9WOQQC47vlwBS3KjvPFhrVDzF7oiAzhUttQJS/JhkbbaPc66/hRSPZ+rrrAdkSPF4hqSAAAQgAAEInAMBpLhRL3uw1qh4it0RgdrihhQ/7vzabB/nXH8LKR7P1NdZpHg8O1JAAAIQgAAEzokAUtyotz1Ya1Q8xe6IQG1xQ4ofdb4e+KQHMWnZwwOSkOLxb1pfZ5Hi8exIAQEIQAACEDgnAkhxo972YK1R8RS7IwJIcd3Okgy/9NJLV77/pCcTb1mOkeLx54Gvs0jxeHakgAAEIAABCJwTAaS4UW97sNaoeIrdEQGkuF5n6QmZn/rUp64IsaXpueee26wYI8XjzwNfZ92/fKd4PENSQAACEIAABM6BQJtH0J4D2YE2erA2EI3DEDg+ZEvnS62wxdun1T7Va+mlT4gtTl/96ldroa6aD1I8Hqevs+5bpHg8Q1JAAAIQgAAEzoEAUtyolz1Ya1Q8xe6IgM4VLbXCFqXY0rKV9RZvo0aKx78DfJ31eYUUj2dICghAAAIQgMA5EECKG/WyB2uNiqfYHRFAiq913u5s2am9loBuLSDF43vE11mfH0jxeIakgAAEIAABCJwDAaS4US97sNaoeIrdEQGkeFkpfvrpp69It55Ibe5bWatOkru33nprR2dv26r6OosUt+0HSocABCAAAQhsnQBS3KiHPFhrVDzF7oiApaxWlVvePn337t0rAmph2dL6xRdf3JwU6zx4/vnnDz/60Y9qnQonn4+vsz63mCk++S6ngRCAAAQgAIFJBJDiSdjmJ/JgbX5O5HDqBE5JivVzSE8++eSmxfjzn//8qZ9SZ9M+X2eR4rPpchoKAQhAAAIQmEQAKZ6EbX4iD9bm50QOp07glKRYfSUx1oyx27XmWjOtFqSu9Ra/T3zq5/hS7fN11n3NTPFSpMkXAhCAAAQgsG8C127fvr3vFuy09h6s7bT6VHtFApbGWkW2vH26Vhvm5OP2W5Ti+t69e3OyJu3GCPg66z5GijfWQVQHAhCAAAQgsBEC1zRYIKxPwIO19UumxL0RQIrr95glKV0zS1yfdcscfZ11PyPFLXuDsiEAAQhAAALbJYAUN+obD9YaFU+xOyKAFNfvLEtSukaK67NumaOvs+5npLhlb1A2BCAAAQhAYLsEkOJGfePB2qc//ekDCwz6zoEnnnjieI5Yjueur1+/fvxebaNTfxPFWpLSNVK8ie6pVglfZ93PSHE1tGQEAQhAAAIQOCkCSHGj7vzDP/xDZJh/CBSfA88++2zVB1NJEs45WJLSNVJ8WmcFUnxa/UlrIAABCEAAAksRQIqXIku+ENgwAaT4WvYp1Ejxhk/aCVVDiidAIwkEIAABCEDgDAkgxWfY6TQZAkgxUnwO7wKk+Bx6mTZCAAIQgAAE5hNAiuczJAcI7I4AUowU7+6knVBhpHgCNJJAAAIQgAAEzpAAUnyGnU6TIYAUI8Xn8C5Ais+hl2kjBCAAAQhAYD6Ba7dv356fCzlAAAK7IoAUI8VbOWHfe++9qg+Rkwh70VPdda570ZPXfazm+u7du1vBST0gAAEIQAACEJhA4LwfQTsBGEkgcAoEzv2fYZakdM2DttY/u8U87Ye9vZZgEyAAAQhAAAIQ2C8BpHi/fUfNIQCBiQS6pAspngh0RjKkeAY8kkIAAhCAAAQgUIUAUlwFI5lAAAJ7IoAUb6e3kOLt9AU1gQAEIAABCJwrAaT4XHuedkPgjAkgxdvp/A8++ODw7W9/e9fL/fv3twOUmkAAAhCAAAQgMJoAUjwaGQkgAIG9E0CK996D1B8CEIAABCAAAQjUI4AU12NJThCAwE4IIMU76SiqCQEIQAACEIAABFYggBSvAJkiIACBbRFAirfVH9QGAhCAAAQgAAEItCTA7xS3pE/ZEIBAEwJIcRPsFHomBO7du3d46qmnilv74YcfHp555pnjT3O9/vrrxen2GPHOnTuXfoJMrLrCrVu3zoJJV/u79uvc0jX83Xff7YrCfghAAAKjCVzThYUAAQicFwF+p/japYGpJZmfZDqv9wGtrUNAIiuBc9BrSa7Dm2++eXj55Zf98spax/QelDCm4cUXXzwee/vtt9NDV15LMJWP0mwxuC2+3mitOnfV+9Sk2O2M7c9tu6/NS+li2KMU6x8/aof/+eN2q43ar+OEdQnoOpU7J3U98jkYa6Q+cr/1rfuuP77W9fW3yu7L38diHrl2OF5c59oV23ju20jxuZ8BtP8sCegiec4hfkjEbaR422eFnvK85pOq9WRswjABDS4lKhrwa9Cl1xoYatDmQaAELw7inKuEWe/BroGk9ut4yWDOA8OuvFxmi/XDhw+P7RCjdIazq95dUrxHKRRztzNec3Pb7mv3vdLFkGu/mCovHdta8Dmea2vcp/fNuYeuc742F58vkX+6nfaHrl9pnNzrrutPvEskdy10G3X+5/JN98U8xr63XBbrywSQ4ss8eAWBsyCgi+s5BcnuG2+8cRSqL37xi50fODdu3DjGUVwEeXtnSF/fpQOGGq85B8adAx70Sfy0SFAkxakExlwVT30lacwFi5FFKRdnD/s0wFY7c7PhXfXvEoScFHblsaX9Hrinkju2jrn2W3K2JsVRiHMzkDov4j+OxrI4tfhd53ztdup8EXedi1Eute066FxKj/lzJe7vq5vPS6fzui+9pXjMuVzrvdXXlnM4hhSfQy/TRggkBHRhPuWgGT6JbQ2JUh7Ki1nD9mdMjf70oKRkjRSP73PLn/h2zZg4VwuDBqdd4VSk2IPWdPapq93a78F5miYnhX35bOWYGWg9J+Tab/kYIxJz6lCSVuLjug61We+FMf8wKSl/j3G6zvm12+J+03nloP7050af1Dq+1j4vnc7rvvRIcSS47jZSvC5vSoPAJgjownyKQbfX5sTp+vXrh5s3bx5ngR88eHDxweYPKK+/+93vHuMortJ4v9fKW2UQ2hDI9a37Zok1UlzezxI3C6wkVzPAfq3B/vvvv38lM8+QSQi6gvMomSm2kGtgHUMcaGuQ6nJ1zqiefeWr3BhfadSevkFtLFvbHmCn56gFrqTeyqdrgO184wBe8WOfKI7K0740pOVbXpVG/GNwf6T7Y5yubec7JIhOH/vN+7Q2T7fX9TeHuDbjmF7lOw+3MXcOxPJ1/vq10pS0wfWawkr1VZk612J7dC7m3gs+N9xelR3bqLr3nbMpE6XVvvR921Un90XkbF6qi/jG95GYpO2I9Y1t1rbycNC2z0PHU94xjuNOXasuWiIzbbu8uL+0jNL04qJyVH5pUF8pTcl5WZrnOcZDis+x12nz2RPQxfOUgkQ1lViJbdcMrz/Y0nUqQZodVt7KK8ZVWcjx+mfQ3bt3j//0kByvsbz33nvrN3KHJWrgHgelHrSqKRos63hODDzw7GuyB7/pADqXRuXqfarBeAwenDuv+F72dk6KPNB0nLiWTJcOjNXOmNbbHvQO1duDfYuP06frKCZRQNJ4OhaDyxcf387uNGm/mWG6P+bXtW2epQN395vb73zN0+11/V3nuDZjpZXQpe2LcdNyXH6OZUkbXFbu3HJbutZqm9sZ6+jttK4+N5TGfeS4Xuf6bIhJfC9Z1pxfuk6/AmF+fe2IbPriub3pPwnSOvic6OI6tF9tdH+7TKcplVrHT9el6c1ZPErD2PdWab7nFg8pPrcep70QOByOA7RTACGJjTL85JNPHmd6h251Tj9I/TqV4shIeeohTyrD8VV2X5qYnm0InAsBDdCGBnR+8FQqaCkjD/BrSLHetxqoe+CsQaoHwKkwaLDu93kcHCut6xSFIa13+rpv0Kr8XbeYzlIRy9dxy4PbEdNo2+IgKYvc1CanjXm6fNVBbYtp0rzd9pRXGi/32gzMNbeOZY9pv1gov77zznVXn8cZ0FivyNTlK980Ta596T6zjmWlcbpeW6jTcmOdYl3dftVVaWP/xnM58lXZkUman7ioPAW1we3xPu2P7yGVG0Osq85JxS1NE+vvPH3NSM9rHVd8sYptcLqhdZRV8VO9U07KI42nuOnS976I6c0iVzeVnear1+KvPsmFeA7n0mpfrk25vM55H1J8zr1P28+WgC6Qew4fffTRQbOGvvhbhrW/JDhdui4VXM1ARznWTHJp2SX1Iw4E9kxAA7Q+OVHbPFDXYLkveNBeMqCz3MVBu/L24LxvoJ3W11KieqbBApKmSePF1x605ga1Y+utcnXtygmA5EXHFCcnYy5LAuHgfX0DesedszaD9LobX8d+7uq3XPuH+sTnW1cbc2V5X67PhjiUClAuH9c1lUzHdb3ie2eo/epvcY7vgVhOn6SpXP+jJZbp+mjt90ucLXY9Y5kxjfuxNI3P03juxvymbse+8rmouqdMcvEc3+uu80t1i+nTvGPdu6TYZYh1+t4e+96K5bH9mMC+R8aP28EWBCAwgoAurnsNuqU1zg5LjscKqT9c0nWpFItdKuaqE7fb7vWsot5rE/AAt2vA7PosLcWWSF0LPFD1Pg3au4IlICemuTQetOYEyyw0EI+hSyosE7myLTpd4pBrW1f5sS41tvsY5PIf0/4hKbTUdZ1v5hb7oKv8XF3TfaUClKbTa9c1d67ouOsapbm0/TFPl9MlurFuPt+jwMbjzivyHeKXE/W+NJ4p1ns1tiPWY+62+s11SAV3Tp+qXnPTi63f+6pjDGPfWzEt248J7Hdk/LgNbEEAAiMJ3L59e2SKbUTX93gtsnNuXXYe6XqMFJuI0kRJ57vGJsMaAt0ELGJxEJ2LvbQU5waqcfCdXiPS13FmM1d/7+sbtJpFOtD14Dxl5IFxToqdV1rP3Gu1XcFp0vJd91rrPga5Msa0f0gKLWA5DnFfFKGu8nN1ze1zP6Wzerm4cd9Qubm25vbFPHPsh8qJ6d2WyCq3rXIchvKfUifnGcvWvvQ94jpMXfu6o39AOOSuFT5Wsp6bXmV4Fln9EUOOZTzOdhkBpLiME7EgAIHGBKIQ6yFLY2eHY/XjB2rcniLFyld1iQ/j0nePCW0IqA9jn+a2df4Q2hKwiA0NZj04LZFP56lBcgweSOfKyg1UkeJIr9722IF7V79Z0OI/BYaksIUUe3Y1ilUJza52O22urbl9jq91jv1QOTG9meeup3GfynEYyn/K7LLy1rVA5aR10rXC/+hxHaauzSteM3LXijH5z03vstzueP67vpG/47MuJ4AUl7MiJgQg0IhAFOIas9zxQzxuT5ViY1HdnF+Nejpf1uUEkOJyVi1j+hbQoVs3W0hx7hbjuaz6Bq1jZT43KHb9zFVCUhq6yi9NXxqvj0Eujy6pyrV/SApzApYrM+7rKj/G6dt2e3UOjwmua9d7w3085vZp10Vrh6FyHE9rC34UsXg8tz3Ez/+oiP80GEqTK0fpXb8osbm4pfvMJuY3V2rnplfd/7/2zqflkiM78/UN1DV7T431BbQQs66NCpmhZ7Sx8VIwM5aXZdpgbewpmE3T0CBwY7BWwtAMWDNYeGmE0dKmLdDGNt4IYXvf8nyCd3je6afqqagT+efezPvmn1/AW5k3M+LEOb+IzDrPjbz39mxU4zs1Vuq9IoAofsWCPQhAYIMElhbECtHCtd1eK4plO/3VF3JRbksAUXxb3pf25tVYJcZD5SFEsfxxkj1lhXrIf58bSlp7orQnECwKxbAtKeiVQE8pvf6ntJ1TZ4hBZWcs/hRoY6LYQnKOQO31X/laHRN/j1WK0aqu5plFsH1N0Ztt7Jfr69xY/BX77GdsrlgkjsVR+ZnC0uftr/4PzsfLHVvVxm2r7ZJzWCyq61/HnTOM8ap8vLa9bDrOdm5U41v5wLFhAojiYT6chQAEHpDAF1988fI/oSVXXv0fW7tdQhQLl8SwbUskU0nR3AgAACAASURBVG5HAFF8O9bX9iTBoL+h8lCi2MmnruNWCCi51TEJ+qnJ8VDS6r4kCLL0BIJX2HpvKLidEmfZziIxIl+yr17/2c77Ho854tJthxi4Tm4dRxuDhaZiyeLj6qcqFjri1r7ZIYGodtm2139lu3fMbDWPqn513uOZY5K+VqJR9jJ+i8ze9dRjn/209tTGPtm++tWx9EmxKw4dT6567bizvuq4X9s3P/PS+WyTfahOFvnmedmey3q5r34l9Nv68s222jl+raid2l6xi32Oh3w3GzFt/e6Nb8bM/jgBRPE4I2pAAAIPQEDf5OyfPVpSECsU/adS/S0litWHH6VWDHwr9e0mkD7frXEc+mM8bjceQz1ZDEiQ9IoT1Op6zWNKOJ00tom2k/M2kVSfQ4mqE83sp91X+ynFtrRty1y/Xb/1JZNos23r+HUm/LbXcmv91GuPR7av6lXHhhhU9XvjZvGb8aq96ztGbVMkSmRZjGWd3M/xsb1q3lT+9o6Zb/ZT7Wc/is1xjtVVv6qvehlv+tNjP9ZPzgkJxsqXPFaJ4jyf+5pD7fXjOLKe9sVmjKPm/NTisW378etKlA/dK3r99uJxP9qqTpahcVf9HBO3642vz7OdRgBRPI0TtSAAgRsTeOedd+7/A9Z26ZL/IeX+kqJYPusLnWRfMVzzxWBLx489CGyBgB/fHEpmLcLyOq32lbA6aW6TRifAKToc/1iiqyTf7bNfJaEpAGyvtx1KWi/xW20yeVYS3woM1WnFsVehchWu138Vi8dji6JY/voxX49VNbc0Fq04Vj0dz+JxF59ri3jLfo6ZfHS/7dipP7Wp4qnmncXXXFGsftS356e5eZ60fjkO1/NWrFpO5qcY9ee62rask6/i8zxzG39UQO1aW/K17TvtVfuOubUlfuqjjduc7E91vurH4+J21bYVxX5qoZorvTcQPX5DXCv/OPY6gUcaIAoEIACBLRHQtzfr3qRV1u+++25x16r/mHRsaVEsIezVbv2eMgUCEHidgMWJk97Xz/IKAhDYKwGL4rmCda/x4vf+CSCK9z+GRACB2QS2/GaYRLBFqz5TvEax/Xa7tCiW7/m5aB7bXWM0sblnAl4tvmTlcc9x4zsEjk4AUXz0ET5efIji440pEUFglMCWRbEfOV7zt2RbMezXa4hiDYZ/w3jNmEYHnQoQ2CgBP8KoR0UpEIDAMQggio8xjmeKAlF8ptEmVgj8isBWRbFEqQXqGo9NewK4j3a7lijO1e+1+nBsbCGwNwL6fJ4fo+ZRy72NHv5CoCaAKK65cHS7BBDF2x0bPIPAagS2Koq9orr0t023IFsx7NdrClZ/GzWrxe1o8BoCEIAABCAAAQg8LAFE8cPyp3cIPAiBLYriXE1dc5VYwC2C2+2aojjj47PFDzLt6RQCEIAABCAAAQiUBBDFJRYOQuDYBLYoivXtzPJLq8Vrl1YM+/WaolgxebV47ZXwtflhHwIQgAAEIAABCByJAKL4SKNJLBCYSGCLovjJkyf3onitb5xONBbB7XZtUexvotbPNFEgAAEIQAACEIAABLZBAFG8jXHACwjclMDWRLEeJ5ZPtxKLrRj267VFsQbZv1t8i75uOqnoDAJ3d3f6vWFdT48fP777+uuvYbIxAlv+8iPNF80bzR/9VNcZyscff3wfr7Zzi76UzrzEjJ81m0twn/W3fA3vk+grrx+92mUPAhA4CwH9B7ql8uLFi/vE4FaPFSv+6u8WQtWPUOtxcQoEjkQgv0X6LKLm0vGTgNE96BIxdGmfarf1hDrfVNF8Onq5VBS7Xf4/tgVRrDGTb/42efsn33S8HVNfB67X2/Kt9K+uhOoaFlez+/zzz19VZm8WgW1lxrNcpzIEIHAUAv5t4s8+++y1kCRSJZiX/vN/Hu1WgnXpvmQvxbYfoeZbqF8bal4cgIB+Z1jXFL83PD6YFgMSCrcsVUJ9q/61Eqz5odXNoWLBJ1+PXhzr3HngFeItvfkkX9r/U6vXKXB9HVT18li2OfqcGIuvuoYRxWPUpp1HFE/jRC0IQGBFAn6kuP3WaQnK/I9xr/uKwyW/hdrH2EJg7wQseLRC1K4G7T22I/lfJdS3is9zZEwUyx+vNKrNkcslotir6WK0lZKC+L333rtrVyslanVc/4fnmx0WxYje6SP5kNfwdC/3WRNRvM9xw2sIHIbAkEj84z/+2SFEseLI4jcB+GmmpML+ngl4lZjkdtuj+JAJ9RxRrHkkAXX0pw4uEcUSnK24fMhZpzfBvHI9tuIt8ZxjiiieP3IPeQ3P93ZfLRDF+xovvIXA4Qjo0WL9B189TnzElWINoB8Xz8eqDzewBHQqAk6Kv/3228G4ldB7xUjXvYVP1c7CyCtLFhBqo2R6aun12VvR1nGL/PTRyWgm/qrrOpU9x9D6a1v5JoIZaiWwKhZDuUJo+/bBW/lfMa36zb4Um/2QLfldPaLrfmWv4pVxyb7r27/cqr+2yKaOV+fauvnajFreruP4cwx1TqzaMVffqletVlf1Na+rurJfMZIvvhZaf+xvu7X/yc/72Xdvzo/NCZ3PPqb45bHtMW9jyNdqI//b+ZJ1Ltmv4hfrqh8dsx/yxeNe9atzqiPWYuPXOib75qtrxmOrc7pmx64j2Uz2sl356zrtOfuS80AxqJ58aP+m3CNka0ocZnUt9zYm273VFlF8K9L0AwEIlAT0OWLdrKvfJ9Y5Cci9/7WflfZvMudj1SUcDkJgBwT8OKeSp6HSS850/Suh6yVzSlj9OK0Tu6kJuBJXt2m3stkKWSW1bV9tuxQKau/zrS2xcMytv1Via1GmbVXcJvt3ImwfcqtzTtJtzzba5HMs7rZ+xtXzIeNw/fTP+2pfFSfjvTcJqjaXiGLF3otBPopZFvdh/9tt6+8YW7XPMc2+2n2PX9unXvv6GWPterZtm+adtqf45eulEn3uo7e1GG3nV6/+lOPyOWNo9zN+x97W0Wv51l7Tnifetu3EouLoeu3c8Fj17KldXkeK3z63zGwj41N9H7cPudW53j3CY5P1vV+N9RzuQ4x07qEKovihyNMvBCBwT8CrwWcSiGeMmel+XAJO7NokLSNWouaEKpM8JWROkJRQZrFdtVOCJjEypyhxc5/pm3xxwqcEM4uPy6dMLnMFJIXCkqLYby4oUa2Kk9v0q6qXTNv4egl1xp1Jcia62W+OjVhlkqzxFXf5m6JC7X288rs95j5y7No67WsLVsVTFcefY+j517KSv6qXx8XG45DHFafttPPYbLVNhtp3m/Sn8juPDcVoxuI89TozE7WRPzn+2W9v3zzmtpM9s1HfQ39T50DvmldfsqH4PAaeX/I/7YuvhX6OsWw4VvmaY+YxcQzZT84NHc9iH9Qu26iO7NuefdZxj1f6rOP2LetmX7mvsVJ/st/GaPs+Z3sZR3t9zeHu+4MYi5uLbDiGNjbXWXv76FY/gbJ2INiHAAT2SeCMAvGMMe9zduL1FAJOclIYte1cp03AXM9JaNpwwtgmYG4ztq1suo0SPSV9SsJcnNiqXYo5n3eSmsmw6jlxrdr0YnDi2SZ/PZ+ddE5lYYEte1mqfsdsV20cV5vkuy8nt7kyVjF3/Wrr8UhxV9XLY27T4+RYcgwrX9Nm7nse93zy+Dlu+6M+qvlRzansr9q3zSpG+6c4q2L/8jqrmFRtq2Nj879qk8cUg6+foW17naSN3Hd8U+oP1fVclU8p9ofmikVmNTd8janPLL6OeuNlmxmPxyuPyaZ9s4jNfqr9OfcIt3cb9ZVliGXWE0sxVfvk6jrm0buvuN5a20dyjgIBCJyLwJbeDDujQDxjzOe6ws4VrZM0C4EqeidNSuir4mQ+E0onSL2EsbLjY5l8+Vi7tU9OIi1Q0ods4/MpqMZEgWNoBYyZtYmt67dJYZUc2zcxlU+2meKiTV5dJ/s1+zxm29o6oc9xsJ95LNuYbY63hUbrU7bLfdfv9ZF1vT8kGFXH8ecYmq226a9t5tZx9eZ6y9JzZs6cyv6q/aEY7V8vDvuX/phJb/wrH3xsbP67Xm9rUXxJ361NX/OtkG3r6XXWrd6sUB2zzDcQNHdl3/eMtO2xzrnl857L7dwfu46q873xGvJN80F+ue3ce4TjqLjlMe0PFd9L2vub29hWy8nn194iitcmjH0IbJCAbohbKWcUiGeMeSvzDT+WJ+BEq0oU3dtQwqY6VfJXHbO9sa1XNDL56+1bQDgO9VuVKukdEwWOYaoozqTQyXoea/2yoOvF1iaXVYxjNmw7Y3BcslcVix2zVZ2eMKjaZ/1eH1U79Sd/09es5/hTuMgvz0/HKkGkOu2cbuu5fru1ffc3Z06lv9X+UIz2r/XbdqpxG/PRbXtb9zkmiKr2nic9PlWb3rE582tK3YqLY634VvcH+9rrrxoPt9G2GuvKL9Xt+TZ2fatdlp591anud73Y0qb3HW97vVSvff9z21tsEcW3oEwfENgYAd2AtlLOKBDPGPNW5ht+LE/ASVRv9Uw99hI2e+NkSbZcqmM+N7bdqyhWXOap+FXMIVf3dNxJuO7n2s8VrV6i2tqWnbGk2QlrCk37lON17+yv/rHY2YMott9iWLHwOKie57GZ9LaypVLxdn/aegxdP8/19iuh5Lr2rxJtqlON25iPtt3bViuqvbrtcc+TZNzWmfq6N+er9lPqVlyG+A6NZa+/ajzS32pltfJLbSrf7NO19wj7hCg2CbYQgMBhCOgGuZVigbilR7rXZuOYtaVAYO8E/EhmirI2prHE2TZS+I0ljG0f+XpodTXr5b596AkUJ5h5PpPEaqXMMaSgVJ+9xFbnWtFj4dC+6eAkOIWn4+kl4VW/jnuOMHFcslcV+5y+9Xyq2uuYOeSc6NX1cbfRfKuK488xrOppXF1XnF08jxXLlDLGtppTY3YdYzun1M7+9a5F+5NMHeec8U8fHUPlT9ar9j1PLu07bfqaV35TXYtz61Ysfc1V428O1dzqzf2x68jnp4xX5ZuP5XVoDj2fhuZD3u+0rzKHu0W++thiYaV4i6OCTxBYmcCWRPHQ7xSvjOHBzPt3itufanowh+gYAlcQcOI2lNg6Ge8lQ1UCaru9NmMu22aVEFZtnbCpXVV6Sa8Tz1a0yoZjaAXDUOKpdvZ9yCf3WyXocxJe99H6WDHwMcfVGxuLnWTf88k226370HZq8RMCYlMVrwRXwqWq3zL2PJ7afoxtb05VvvjYkCi2f71xyXlle2Nz0fV6W4kjcxrjIt9T4HmezBnjnh867vim2Buq67naCmzHWV1zQ2Npe+289BxfYrwq36pj5tfzaWg+VKJ4DncLaPllUW1/trBFFG9hFPABAjcmsEVR/OTJkxtTeLju3nnnnfvPvekNAQoE9k7AQkSCo1ecgOnekwmgkiQLFSWpWcYSxqxb7bu9+myTdSVkOqa+nZxp6yQyfZTvThQrW/Y/bSmubNMKTp/rJe9OsO1PVc+CQv1mUVu30zZLr18LBNlKIau2EnayqT8Xs5W9qti31pb9SltVex0z1+rNhl4bHXcfKb7kh+21Yyhf5Y/GOYuOqW7Oy3Yea5yziIuYOO5L51TabPdlW361c0r1Wv/cdug6680Jt52y9XyQX9Uc0nnzzznjeaLzS5T0o7VpHzzOvbri6+shfZV/nlu2kT57vlRz2+PSXo/2QRw8Z2TzkvGqfDNfsc8iH12/9WloPmg+a4z15/um7DoOHdd+Fr1W/2Zm+2Lc1lUd+dZyT3tr7iOK16SLbQhslIBuXFsqvsl+//33s9zyKrPbP9R2rri1n3PjnQWHyhC4IQEnWK1ISBcycfI14K3aO2lyG9e/JkFyoup+qm0vuWvrOsY26bVIaevrtZNSbbM4MWyTQtdxEi0b6jd9dB2/GTHUr9pm6fWrcbMQqOzpWMY9NjaOOxN9+eH+s4/WR9VTvDpenct4qv3emMuW/cpYdDz9affbGIbG222zjVn5XG7NPP2pYspj7r+dU64z1J9iba8zj0lvLtru2Hao34w5+/F45PlqP9uM+eF4Kjs6lvEP1ZVv7XXnuZI27I/nXTWWvp7VPssYsznjVfm25D1CfouHubZshli23P0GiW21297cTnZr7COK16CKTQhsnIBuQFsqXjn94osvZrm1R1Fsn8+0Mj5rUKm8SwJ+bHMseVVC3yZEaluJaSeMSrauKeqzStiUvKZ4cR9aGc1kXf56tVT3zirp1XkLHNXxyohjaJM8+zPEyz4MxS//Xc/9ypdeEj7Wr2LLOGyzjdlx9XyzTxVfzxXZtn2z99b2c7XX56Zs3d59yI6SeMef8chHvXZdb1W3Ej/qX/O116Ya02pOZb/pz1h8aicf2zmV7VRn6nVmJpXfaXPKvrlYoJmlfFGMrZDyPHG93naub+Ldxq84dbwtsp1+yPfeeDiual54PlRte9ej+vZYtteF/K3ui73x6vmmuZDxicul94ghUSyuc7m3Y6R7j/hVcbfjtsbrR2f6cps1AGITAnskoJvwlsrz58/v/2PQdk75xS/+7o1Epvef6prH5cfU4i/Zmnrv9X+Arf/6z0T/2a1V/J/fUOK1dN/+j7tNnNSPkwfxoGyPgJM+JTXV+G3P4/keDSW9863RYoiAhXklPobacQ4CeyLA/2vbGq1tZcbbYoM3EDgsgamC7FYAtEIs0Td39dSrrq1gvPXrOY9Pe1V86pds9USxY9R/qmsURPEaVI9t0ysdl67ubZ0Oovg2I2TOvAF2G9708nAEEMUPx77qGVFcUeEYBCBwUwL6bK1F3jfffDO5b7WTIH3ov6mfDf7uu+9exjm1jUVxrgpLsPq4uK2xmrI1UTx5UlDxwQhozniFr3pM8cEcW6hjizVtKesQ8Gcg9Sio5hMFAkcmgCje1ugiirc1HngDgdMS0Oq1BN7cR6j3BMyPTn/wwQeT3bb4TVHsxn7c2KvF/g9WSbuEcn5eJ4Wz6vnzR2KuenlefflNinbrvuyD+hqy5XraWlTYpvqVPQtwH8+tV4vskwWJ2qhfibCq6DNJsqM+sqg/c9N57R9RwGXMt9xPUZNz6pY+rNWX56/n4Fr9nNWu5ovvJVyTZ50F54pb/x/p/yH/P3eu6LcXLaJ4e2OCRxA4JQE/Qv3WW2/dTV1F3Rsoxab/AKc+Oq34hkSxz1mo+j9Yr9apL/9ZoKRQ9jlvLbwtQH08t+5LojTFZdbRvsSRy1hd+da292snC/YpBYnjt9/uT1uzyOTa9W07t44rbbAPAQhAAAIQgMA5CCCKzzHORAmBXRDQZ4olVLSierQiIazY5n5u2kKuEn4WvxZ+FoLqR+0kRrP4vNpZJOu8V8By1VVtZUfCtyr2S9ss7iNXaF1Xx7Jf+Z3HLLJbv2W/EsU+1vqg+opFq04u6Vd+s6VstHXdhi0EIAABCEAAAucggCg+xzgTJQR2QcDC8YirxRb8n3zyyayxsKBMUSxR5xXfFLIWfrmamp2proRuClOfdz8W2GOiWIKzEqOyZ99kw48xq34ldt2/tnNFsdpY0KZtP8KbX/gkn5JV9mtuyTjPsw8BCEAAAhCAwLEJIIqPPb5EB4HdEbB4PNJqsT9LrNjmPhpusSoxW/2lkLO4q0SxRW6unubkaNu6frVSbNFZ+ZPHJL7ln471BHT6cIko9iq3xbzs+VuQ8xFuxZ2+VftiQIEABCAAAQhA4HwE+J3i8405EUNg0wT82WKJFn1b87VFgvTav2t8UAyXfJbYffZEsYRfPgas+q2wtQ1th0Suzlu8WlAP1XfdSljmsRTFtps+tfuXiGL1oT61EuwiAZyrwo4lfav2EcUmyBYCEIAABCBwLgKPlBhQIACBcxHY2u8Ut/SfPn16L3T0m77Xlkr8zD12jQ+ORdtLikVxrgj37EwRxUuuFOfjyT2fLKDXWilWvxbTepPA/bUCtxXKPX85DgEIQAACEIDA+Qggis835kQMgXvBuWUMubp67WPUcwVwVf9SVn5sWivFc35/OftbShTLpj9TXAls9+PHkL26Wj0+7c8J52ps+pz7ritRKptDxeK2qmexW604+80AbR1Hu4ru2KvPUw/5xDkIQAACEIAABI5PAFF8/DEmQgi8QUDCb+vFX7olX+f8hFEbVyVy5x5rbU55nY+Bz/1yrbRvkVcJ2aynfYvDSjjmeQnEtOc+WpErIStW+dlc9+k2emw5bem8+pfAtbjNuilK22+f9hd0tau8sjkkitWPV4K1zUep7a/ZKMbWvl5XcbgtWwhAAAIQgAAEjk0AUXzs8SU6CJQEJHT2UPSYt3y9ZqVVjy1f+zeXlVaF/Tniax9Vt6BshWflk4VfTxSrjYVn9cZA24f7zroWlBKiXtnN87lvUaxVW6/U5nnvWyjbfx/XVj6oDIlinU9fvdp93zD+yTrZh/fb+KMpuxCAAAQgAAEIHJgAovjAg0toEOgRkAjYS/Fncq8RxreMNQWxPhM999umW18t5KYINovKIVEs+6rnVWDNBQllC9PsX6LW/feEo/pqBa+Otf7Klo7bjvu1yHa/jsH1HMuYKPZ5xTVUZL99Y0Axtn4M2eAcBCAAAQhAAALHIoAoPtZ4Eg0EJhGQ4NhLkaiUuJTPWxfGSwvivYwRfkIAAhCAAAQgAIE9E0AU73n08B0CFxLYkyhWiCmM5fs1nzG+ENloM/nkR6aXWCEe7ZAKEIAABCAAAQhAAAKLEEAUL4IRIxDYF4G9iWLRlTD+4IMPXj5+q8/qXvto8lKj9vz585d+6XHvrfi1VHzYgQAEIAABCEAAAkcmsJ9nKI88CsQGgRsT2KMoNqIUoE+ePLn76quvfOrmW/XtR7vFVL5RIAABCEAAAhCAAAT2RQBRvK/xwlsILELg2m9EXsSJK4zo5478qLLEqOLRbxvfqqgv9am+9Sdf5BMFAhCAAAQgAAEIQGB/BBDF+xszPIYABH71OHUK01uI41YMq0890s3j0kxJCEAAAhCAAAQgsF8CiOL9jt3uPNdPsnhlzb9fuocgJIQeP/53L313DHvf7n212HNHjzD7Z5s8JnqtL75aQqzKhmzl55nVj/p4yEe3HT9bCEAAAhCAAAQgAIHrCCCKr+M32rr6TUwl1PpdTP/+5qiRg1ToiWL/dum77767yUglfDRmf/hHL+5+9id/eoi/Z8/evxd1mwR+oVMap1a4Wry+ePHi/vHmKY9Yq45sqU0rtmVPfSCGLxwkmkEAAhCAAAQgAIENEkAUrzQon3/++d3bb789aXXx008/XcmLbZnduyj+m7/9xbaAXuHNf/1vv3M4UWwcErWffPLJa1+AJTGbf/qCLgne/NOxrJP7+jIt2Zwiqu3H0be6x4nR2d7cW2Nc9eapWGpLgQAEIAABCEDg9gQQxSswd7KoJOe99967a0Xvt99+e59IWjSfJansieIVhmBRk14pRhQvivUmxiRi9eizvhW6WvVN4Zv7qqs2avvQQlhPlaRv1f5a9xA/xaF7Wlt8n1u67zM+XYMobmcXryEAAQhAAAK3JYAoXpi3hJ/FrpLZsaJkaOmkcqzPhzqPKH4o8m/2e+SV4jejffPIN998c/8ItN7w8J+ObbGcRRR//fXXL++dlfD3scePH29xmK7yCVF8FT4aQwACEIAABK4m8EiJBmU5Ak5uLv18rBJDjYkTP9mzyNZxCUsXnVM/mSz2BLbrVSs+7rOyr2NKytXvRx999LIvHVf/vaLVcfepuorBbIb6SXsWA2onH7Xqrra2167AZ1uda+vLjri2/We7ap+V4ooKx25FwNeBroFbl1utFOvpGV+bum9U9xYdkz+6lxytKDbdl6q4jxYr8UAAAhCAAAS2SABRvPCoWIgNCbahLi1QlSDaloVgijknynnO+0oqUzyrPwvUS0Sx2jphdR/eSii3xYm061Tb9M8JoWLK4hjte2Wn4jy3/+yz2kcUV1Q4disCvg6mimJdE/lGmq4bXb+6Ltpi27ovqJ2vNdX3fnvd6ZxKPj6t/bxfaV9Cd2pxX2o3p/jeodjaN86Sl+rlPUz95Hn3qTqOz8e01f3KHH3cx+S7YjVL1dOx6l6rtslZdeWL/rSPKDZdthCAAAQgAIHbEkAUL8zbidechDBdUKKm5Eh/slUlSU4E2/NKwpwMK0HL4qSzStSyz0qsOnFLAepVY/mQbWTf/rdJuP3W+Wzj463PmWRq30ms2jqJVFxZhvpPsZz9Z/tqH1FcUeHYrQj4OvD8H+vX9X0d5lbXTRbX9X3DdXVd+57hY97qnIqvNb32udy212b2m/u+/7T3kqzT2/e9o/VffpiX7xXpm/fb+6F8cHzZp+4XapPn8pjt5VZ12/8H7G/Wy32dp0AAAhCAAAQgcHsCiOIFmTtJUpIzR3SlC1MSRCeAVQLl9vIhEzInuG0SqL6zTfrtBK5NpO2vkj718+WXX/rQy0S6FcSq0OPjfpSgZ3HCXsWpPtV3Jqlq6zjn9J99VvuI4ooKx25FwNeB5nvvr5rv6Z+ue9838npN29V15jeSqvuGjtkf2fG9Q/edqq/0J/f1Zpvs9O4zWbfd971D7dMH1/N5+WORrHOOS8ez6H7S3lN03veuPOdj9j3tW4gn07zP5nHZqeqnX+xDAAIQgAAEILAuAUTxgnwzSdJ+W5yIOZH0NhNaJ06ZfKUdJZxuV/Whuk5Ic2XXYrFKbt2n7KZNJ5RKNqvifmwz409B7rZ5fko/TtgzgbStikPan9O/bfa2a4rif/u3/3v3V1/+dfnbx5/92c/v1vrG67N/0VZvrLd43NeBr/tqm/eQXgy+//h6VT3bzmPZvmrj82ojX6q+/SRJde26vbfuo/oohuv0tr5HVT6oje9RKVhty7HnffISUVytiFvoqw+XIV99bgov22MLAQhAAAIQgMByBBDFy7G8t6SkSoliJcqc/LVJbSZ0Fqg9UTx2Xk442csEaw1R3Noc8y1F67WiuLJ1af9jU2BpcvK5VwAAELJJREFUUSwh/H/+4i/vfvO3fvvlGxztnMjXv/7rb9/94R+9WFQgI4rHRn075309a35PLRKsuq/4Gs35lALYtvNY9uF7VnVex2Q3719uO0fkuY9KFNu/9D/vje6n8sH3iKxv/7St2qpuVb+y5WOVKPa9SP67eDU4V+p9zr5oS4EABCAAAQhA4PYEEMULM/fKxJTkxslgJnROpqrETK6OnVcdJ5Lpg5PjKrm1TSWeSvRcnKhlYudz2rY2bafnu5PIqf1Ucbj/ytal/dtmb7ukKNbqr0SuGDx79v7dj3/y03uxK6Hclr//h3+8F8/Pf+9HL8WzxKyOX1sQxdcSvF17Xwea31OKxVcKydzPe4Bt57Hsw/eo6ryOyW7ev9zW9468B/lcu3Vd+d0W+5f+5/3FbSsffI+oRKv6qfyX7bRvf2wrz/lYZd/3Ivnv4vul2rXFcUzh1bblNQQgAAEIQAAC1xNAFF/P8DULTm4kjseKE85M6JxMZfKVdvKx4Wo1WnUtzPOxQCdkecx23acSz0zYHEsmdm6jrW06YbZvPd+dRE7txwlxlShWti7tP2Oq9pcQxf/8L//6cmVYK8R6ZHpOUfuf/cmfvhTH2r+mIIqvoXfbtr4OpohiX7O6B+i+kvcI3298vSoK285jGV3VxucrUelz9qO6dl3H27z/DMXoaz7vL+4n76G2W9X3OW2rtrKd9l2/suVjc0VxFaN9mcLLPrGFAAQgAAEIQGA5Aoji5VjeW1KipKRKwq8nJt2lE85M6JwgVomZ21n0VgmU26v/TIi9elS18ZdWTRWr9qMVxTpu36ok20nk1H6csFc+92xd0r/j6W2vFcVa2fXqsFaKryn/8I//dPfuu//xfn7pkepLC6L4UnK3b+froBJTrTe+p1RvfvlcXpu2ncfSZtXG55cSxbLne0m1Wuz+fM3nvVH3Bt1P8h7q+toO3Q8ce7LyvTvvnbJT9e1jU0Xx0OesHUd1r8t42IcABCAAAQhAYB0Cj9Yxe26rSrKUqOlPCVOV6OiYhWomdBa1mfi1NJ1AyX7aVpLqJFAJXxa30flMrp302l8lei5u09ryeSeymVDbnvrJ47Jl39TXlH6ctGaM7tsJaWsr+884ZcP+tm1ss7e9RhRbEEsUX/vYsx6x9ueQ//vv/O5VwhhR3Bvt7R33dZDzueelr9lWXOb1l9elbeextN2zpzpqo2sp719u63baTin5xtzQPVP95b3R/VQ+qF+fb+9HjlvHs1T3ZNnwvSP79j1I59ri+7j6cTEv9ZljKfsW49qnQAACEIAABCBwewKI4pWYSxg70VEiN/SXKxVOpjL5qlx0UlfZVZKWolPt9brnjxM+2cp2TigzsUtf3C4TarX38da3W4hi9Z/9pA8Zf8aZMVX7l4piPfIsMby0INaXdKlopVjxXbJijCiuRnqbx4audc9vi0KtcOY893ltfTyvV9vOY0nB96PWjupY5LnvbOd7xxyRJ3v2Mftr91XHxf1UPriOhW5rR6/buB1TW9d+Zd+6h6ie7ndtMbf23tnzxfbn8Gr75DUEIAABCEAAApcTQBRfzm5SSyVrVSKkR+mqBMjJVCZfvY7UPgWo2gwlh7KdvqitBLn7VIKXYtEJZ5vY2R/33SaWsuFHBWXTfjmJnNqPE/aKU8+WfNM5t1Vf+hMXt5nC1jFqe6ko9qrutSvE+XlkC2L7Z2E89zPKiGIT3P62ncue07nN6769znXN6zpXHbXJ69W281hLRG3zjSaLQAvI7Nttfe+orl3X6W1lL+9T8tn3kHwDUe3dT+VD2lc92TAz2RenqqiPrCvb1b3Dx8wjbfmeKr5tyXujuMo3x6EtBQIQgAAEIACB2xNAFN+eOT0+EAE/oqmEeE65RBTrs8NKwK/9DLEfv5atVhArhp//rz+/X4n+tV/793fVN1j34kQU98hwHAIQgAAEIAABCEDgbAQQxWcb8ZPGq1Utr2zPXY2ZK4olTvXItFaKrykWxLJVrQRLJEss//CH/+V+O+cbqRHF14wMbSEAAQhAAAIQgAAEjkQAUXyk0SSWl485+jHJdjt3lVhI54pii9VKyE4dohTE1ePX7kPCWyJcIlfieWpBFE8lRT0IQAACEIAABCAAgaMTQBQffYRPGJ8/J5mCWKvEc1eIjW6uKJZQffbsfTefvZ0riNWBRfJUIY4onj0sNIAABCAAAQhAAAIQOCiBRx9++OFBQyMsCCxDYI4o1qqtxPiPf/LTizq/RBCrI/c79ZuoEcUXDQ+NIAABCEAAAhCAAAQOSOCREngKBCDQJzBHFGulVtfU3/ztL/oGO2fGBLG/vMuPTLdmJHR/+J8/uO9b/Q/9ycY777xz/2i44jv63/fff9/i4jUEIAABCEAAAhCAAATuCSCKmQgQGCEwRxTry64kirVyO6f48efebxr7p5d6glh9uW/1z9/rDN566607noqZMyOpCwEIQAACEIAABM5DAFF8nrEm0gsJXCKK53RlQSzBW32plgXx89/70aDYRhS/LoSrNwY0lhQIQAACEIAABCAAAQgkAURx0mB/9wT0ZVoSQ/qyraXKmqI4BXG1umxBPOWzwnpcuhKCHHslllktXuqqwA4EIAABCEAAAhA4DgFE8XHGkkju7u6/YXovonhJQazBtz1E8CsR3LJ4+vQp1wkEIAABCEAAAhCAAAReI4Aofg0HL25J4Ouvv75f2Xz8+PFi3e5lpdgCtvcZ4TkrxIbH49N9MWxxjCj2bGELAQhAAAIQgAAEIGACiGKTYHtzAkcUxf6G6OqzwQa8hiCWbQtpC0C2b4pkRLFnIVsIQAACEIAABCAAARNAFJsE25sTOKIo9ud6JXyrYuFarRDrM8U6LjE75TPErf1nz96/088yTSlH/53iFy9elJ+vRhRPmR3UgQAEIAABCEAAAuci8IgvnjnXgG8lWj/mXK1m5uPUn3766d3bb7/9hsB577337j7//PM3wrFdfdGWRLe27kN2dX5umfNFW7Ktn1XSN0W3xYK4+hbpFMR6DHpu+ed/+df7OLVSPaUgiqdQog4EIAABCEAAAhCAwBkIPDpDkMS4PQIWrxasuU1RnKI263hfojmL7cqG67Tbjz/+OJuM7s8VxRa/+W3SPlatAKcg7q0wjzn545/89D5eieMpBVE8hRJ1IAABCEAAAhCAAATOQABRfIZR3miM1zw+bbGsVeQsFsUSwlpNVh8uEsMWyHnc53vbuaLYj1B7xXdtQSxRrdXpqY9OK05EcW+0OQ4BCEAAAhCAAAQgcDYCiOKzjfiG4r1GFCsMrwZ/++23L6OyKJZoroqEsoSx6k0tc0Wx7Ep0qp//8eJ/3m/XWiFWX14llhifWhDFU0lRDwIQgAAEIAABCEDg6AQQxUcf4Q3HN1UUS/RqlTdXer3iq22u+o6J4rHzFa5LRLG+fVq+/cZv/Kd70draXeKRadn0qnT1Gea2z3yNKE4a7EMAAhCAAAQgAAEInJkAovjMo//AsU8RxT0hfKko1pdzqe277747OfpLRLGM+3eD21ViCWY97iw/Lv0Msezbjmzl55enBIYonkKJOhCAAAQgAAEIQAACZyCAKD7DKG80xjFRbAEr8ajHodtHnv349JyVYn0xl+zpMeqp5VJRLPvt54lTyP7Vl3891YU36tmOYtH+3IIonkuM+hCAAAQgAAEIQAACRyWAKD7qyO4grjFR7C/T0mpxVS4RxX58+qOPPqpMlseuEcUyaGH8o9//g7snT/7D/SrxJULWzumR6WtXmhHFpskWAhCAAAQgAAEIQODsBPid4rPPgAeMf6oobleI7fIloliPTWt1tf0pJ9ustteKYtm0MJaY/fP//RdVN6PH9Ii0v1RLdq4R1ojiUdxUgAAEIAABCEAAAhA4CYFHEggUCDwUAQvbajXYnyeWkG2/YdriVvO3enxa5/X4tYva+5un259xcp3edglRLNt6XNorvBKl+jzxlM8C67eHJYbdVl+qNaVdLx4dRxQP0eEcBCAAAQhAAAIQgMCZCCCKzzTaG4zVj0hL3PpPQlnll7/85Z0ErI/nVqLXgroSxVk399Um609BspQoVl8Ss/oCLgtc+SaBqmP606PREsva1+rys2fvv4xf9eb87NJQbIjiITqcgwAEIAABCEAAAhA4EwFE8ZlGe6Ox6vO9KVzzS7ByhVd1JJL9OPWQKJaN1q4EeK44T8WxpCjOPrVyLOH7m7/126/FnywkXj/7s5/fabV4yYIoXpImtiAAAQhAAAIQgAAE9kwAUbzn0cP3mxBYSxS3zmsVWSvB13xWuLXZe40o7pHhOAQgAAEIQAACEIDA2Qggis824sQ7m8CtRPFsx65ogCi+Ah5NIQABCEAAAhCAAAQORQBRfKjhJJg1CCCK16C6rs0XL16Uj6Q/ffp03Y6xDgEIQAACEIAABCCwOwKI4t0NGQ7fmgCi+NbEr+8PUXw9QyxAAAIQgAAEIACBsxBAFJ9lpInzYgKI4ovRPVhDRPGDoadjCEAAAhCAAAQgsDsC/Ejx7oYMh29NAFF8a+LX94covp4hFiAAAQhAAAIQgMBZCCCKzzLSxHkxAUTxxehGG3722Wd3+pzv0n9PnjwpP1P8gx/8YPG+nj9/PhonFSAAAQhAAAIQgAAEtksAUbzdscGzjRBAFK83EL0V3fyt5q3v8+Vd680PLEMAAhCAAAQgAIFbEEAU34IyfeyagEXx1sXZXP+2IOYQxbu+NHAeAhCAAAQgAAEIHIIAovgQw0gQaxP45JNP7iTgjvT3xRdfrI1t1D6ieBQRFSAAAQhAAAIQgAAEViaAKF4ZMOYhAIE+AURxnw1nIAABCEAAAhCAAARuQwBRfBvO9AIBCBQEEMUFFA5BAAIQgAAEIAABCNyUAKL4prjpDAIQSAL6vPbeH0nXN2hTIAABCEAAAhCAAAT2S+CRvpyHAgEIQAACEIAABCAAAQhAAAIQOCMBRPEZR52YT0+AN8NOPwUAAAEIQAACEIAABCDwKwKIYqYCBE5IAFF8wkEnZAhAAAIQgAAEIACBkgCiuMTCQQgcm8AeRfEtP3vM54SPPf+JDgIQgAAEIAABCCQBRHHSYB8CJyGwR1Esn2/19/Tp05PMBMKEAAQgAAEIQAACEEAUMwcgcEICiOJhgY0oPuFFQcgQgAAEIAABCJyWwKMPP/xwdPVFdYbKlNWbofZL+LCEDeL4/6O0BMslbDAe647H0DW5xXNT5sNSdRDFW5wB+AQBCEAAAhCAAATWIcDvMa3DFasQgMDCBJYSvFPsIIoXHjzMQQACEIAABCAAgQ0TQBRveHBwDQIQeEVgiphdqg6i+BV39iAAAQhAAAIQgMDRCSCKjz7CxAeBgxCQUL3V3/Pnzw9CjTAgAAEIQAACEIAABMYIIIrHCHEeAhCAAAQgAAEIQAACEIAABA5LAFF82KElMAhAAAIQgAAEIAABCEAAAhAYI4AoHiPEeQhAYFcE9Ij12GeLv/rqq13FhLMQgAAEIAABCEAAAusRQBSvxxbLEIDAAxBAFD8AdLqEAAQgAAEIQAACOyaAKN7x4OE6BCDwJgFE8ZtMOAIBCEAAAhCAAAQg0CeAKO6z4QwEILBDAojiHQ4aLkMAAhCAAAQgAIEHJIAofkD4dA0BCCxPAFG8PFMsQgACEIAABCAAgSMTQBQfeXSJDQInJIAoPuGgEzIEIAABCEAAAhC4gsD/A0DEXYrA7gOiAAAAAElFTkSuQmCC;" vertex="1" parent="1">
          <mxGeometry x="600" y="318" width="353.26" height="164" as="geometry" />
        </mxCell>
      </root>
    </mxGraphModel>
  </diagram>
</mxfile>
